<?xml version="1.0" encoding="UTF-8" standalone="no"?>
<!DOCTYPE svg PUBLIC "-//W3C//DTD SVG 1.1//EN"
 "http://www.w3.org/Graphics/SVG/1.1/DTD/svg11.dtd">
<!-- Generated by graphviz version 2.47.0 (20210316.0004)
 -->
<!-- Title: dependencies Pages: 1 -->
<svg width="1590pt" height="284pt"
 viewBox="0.00 0.00 1590.00 284.00" xmlns="http://www.w3.org/2000/svg" xmlns:xlink="http://www.w3.org/1999/xlink">
<g id="graph0" class="graph" transform="scale(1 1) rotate(0) translate(4 280)">
<title>dependencies</title>
<polygon fill="white" stroke="transparent" points="-4,4 -4,-280 1586,-280 1586,4 -4,4"/>
<text text-anchor="start" x="770.01" y="-42.4" font-family="sans-serif" font-weight="bold" font-size="14.00">Legend</text>
<polygon fill="#ffffb3" stroke="transparent" points="557,-10 557,-30 577,-30 577,-10 557,-10"/>
<text text-anchor="start" x="580.63" y="-15.4" font-family="sans-serif" font-size="14.00"> &#160;Declarations</text>
<polygon fill="#8dd3c7" stroke="transparent" points="670,-10 670,-30 690,-30 690,-10 670,-10"/>
<text text-anchor="start" x="693.73" y="-15.4" font-family="sans-serif" font-size="14.00"> &#160;Module</text>
<polygon fill="#80b1d3" stroke="transparent" points="756,-10 756,-30 776,-30 776,-10 756,-10"/>
<text text-anchor="start" x="779.78" y="-15.4" font-family="sans-serif" font-size="14.00"> &#160;Bootstrap</text>
<polygon fill="#fdb462" stroke="transparent" points="853,-10 853,-30 873,-30 873,-10 853,-10"/>
<text text-anchor="start" x="876.67" y="-15.4" font-family="sans-serif" font-size="14.00"> &#160;Providers</text>
<polygon fill="#fb8072" stroke="transparent" points="949,-10 949,-30 969,-30 969,-10 949,-10"/>
<text text-anchor="start" x="972.73" y="-15.4" font-family="sans-serif" font-size="14.00"> &#160;Exports</text>
<g id="clust1" class="cluster">
<title>cluster_SettingsModule</title>
<polygon fill="none" stroke="black" stroke-dasharray="1,5" points="8,-70 8,-268 1574,-268 1574,-70 8,-70"/>
</g>
<g id="clust2" class="cluster">
<title>cluster_SettingsModule_declarations</title>
<polygon fill="none" stroke="black" points="182,-78 182,-130 1566,-130 1566,-78 182,-78"/>
</g>
<g id="clust13" class="cluster">
<title>cluster_SettingsModule_exports</title>
<polygon fill="none" stroke="black" points="445,-208 445,-260 1224,-260 1224,-208 445,-208"/>
</g>
<g id="clust15" class="cluster">
<title>cluster_SettingsModule_providers</title>
<polygon fill="none" stroke="black" points="16,-78 16,-130 174,-130 174,-78 16,-78"/>
</g>
<!-- AdvancedComponent -->
<g id="node1" class="node">
<title>AdvancedComponent</title>
<polygon fill="#ffffb3" stroke="black" points="1558.08,-122 1419.92,-122 1419.92,-86 1558.08,-86 1558.08,-122"/>
<text text-anchor="middle" x="1489" y="-99.8" font-family="Times,serif" font-size="14.00">AdvancedComponent</text>
</g>
<!-- SettingsModule -->
<g id="node10" class="node">
<title>SettingsModule</title>
<polygon fill="#8dd3c7" stroke="black" points="872.16,-187 869.16,-191 848.16,-191 845.16,-187 767.84,-187 767.84,-151 872.16,-151 872.16,-187"/>
<text text-anchor="middle" x="820" y="-164.8" font-family="Times,serif" font-size="14.00">SettingsModule</text>
</g>
<!-- AdvancedComponent&#45;&gt;SettingsModule -->
<g id="edge1" class="edge">
<title>AdvancedComponent&#45;&gt;SettingsModule</title>
<path fill="none" stroke="black" d="M1489,-122.22C1489,-142.37 1489,-172 1489,-172 1489,-172 882.22,-172 882.22,-172"/>
<polygon fill="black" stroke="black" points="882.22,-168.5 872.22,-172 882.22,-175.5 882.22,-168.5"/>
</g>
<!-- BackgroundComponent -->
<g id="node2" class="node">
<title>BackgroundComponent</title>
<polygon fill="#ffffb3" stroke="black" points="1401.76,-122 1252.24,-122 1252.24,-86 1401.76,-86 1401.76,-122"/>
<text text-anchor="middle" x="1327" y="-99.8" font-family="Times,serif" font-size="14.00">BackgroundComponent</text>
</g>
<!-- BackgroundComponent&#45;&gt;SettingsModule -->
<g id="edge2" class="edge">
<title>BackgroundComponent&#45;&gt;SettingsModule</title>
<path fill="none" stroke="black" d="M1327,-122.22C1327,-140.83 1327,-167 1327,-167 1327,-167 882.35,-167 882.35,-167"/>
<polygon fill="black" stroke="black" points="882.35,-163.5 872.35,-167 882.35,-170.5 882.35,-163.5"/>
</g>
<!-- CursorComponent -->
<g id="node3" class="node">
<title>CursorComponent</title>
<polygon fill="#ffffb3" stroke="black" points="1233.94,-122 1114.06,-122 1114.06,-86 1233.94,-86 1233.94,-122"/>
<text text-anchor="middle" x="1174" y="-99.8" font-family="Times,serif" font-size="14.00">CursorComponent</text>
</g>
<!-- CursorComponent&#45;&gt;SettingsModule -->
<g id="edge3" class="edge">
<title>CursorComponent&#45;&gt;SettingsModule</title>
<path fill="none" stroke="black" d="M1165.04,-122.03C1165.04,-139.06 1165.04,-162 1165.04,-162 1165.04,-162 882.4,-162 882.4,-162"/>
<polygon fill="black" stroke="black" points="882.4,-158.5 872.4,-162 882.4,-165.5 882.4,-158.5"/>
</g>
<!-- FontComponent -->
<g id="node4" class="node">
<title>FontComponent</title>
<polygon fill="#ffffb3" stroke="black" points="1096.51,-122 989.49,-122 989.49,-86 1096.51,-86 1096.51,-122"/>
<text text-anchor="middle" x="1043" y="-99.8" font-family="Times,serif" font-size="14.00">FontComponent</text>
</g>
<!-- FontComponent&#45;&gt;SettingsModule -->
<g id="edge4" class="edge">
<title>FontComponent&#45;&gt;SettingsModule</title>
<path fill="none" stroke="black" d="M1023.06,-122.24C1023.06,-137.57 1023.06,-157 1023.06,-157 1023.06,-157 882.29,-157 882.29,-157"/>
<polygon fill="black" stroke="black" points="882.29,-153.5 872.29,-157 882.29,-160.5 882.29,-153.5"/>
</g>
<!-- ForegroundComponent -->
<g id="node5" class="node">
<title>ForegroundComponent</title>
<polygon fill="#ffffb3" stroke="black" points="971.15,-122 824.85,-122 824.85,-86 971.15,-86 971.15,-122"/>
<text text-anchor="middle" x="898" y="-99.8" font-family="Times,serif" font-size="14.00">ForegroundComponent</text>
</g>
<!-- ForegroundComponent&#45;&gt;SettingsModule -->
<g id="edge5" class="edge">
<title>ForegroundComponent&#45;&gt;SettingsModule</title>
<path fill="none" stroke="black" d="M848.5,-122.11C848.5,-122.11 848.5,-140.99 848.5,-140.99"/>
<polygon fill="black" stroke="black" points="845,-140.99 848.5,-150.99 852,-140.99 845,-140.99"/>
</g>
<!-- SettingsComponent -->
<g id="node6" class="node">
<title>SettingsComponent</title>
<polygon fill="#ffffb3" stroke="black" points="806.45,-122 679.55,-122 679.55,-86 806.45,-86 806.45,-122"/>
<text text-anchor="middle" x="743" y="-99.8" font-family="Times,serif" font-size="14.00">SettingsComponent</text>
</g>
<!-- SettingsComponent&#45;&gt;SettingsModule -->
<g id="edge6" class="edge">
<title>SettingsComponent&#45;&gt;SettingsModule</title>
<path fill="none" stroke="black" d="M786.95,-122.11C786.95,-122.11 786.95,-140.99 786.95,-140.99"/>
<polygon fill="black" stroke="black" points="783.45,-140.99 786.95,-150.99 790.45,-140.99 783.45,-140.99"/>
</g>
<!-- ShellComponent -->
<g id="node7" class="node">
<title>ShellComponent</title>
<polygon fill="#ffffb3" stroke="black" points="662.11,-122 551.89,-122 551.89,-86 662.11,-86 662.11,-122"/>
<text text-anchor="middle" x="607" y="-99.8" font-family="Times,serif" font-size="14.00">ShellComponent</text>
</g>
<!-- ShellComponent&#45;&gt;SettingsModule -->
<g id="edge7" class="edge">
<title>ShellComponent&#45;&gt;SettingsModule</title>
<path fill="none" stroke="black" d="M642.62,-122.24C642.62,-137.57 642.62,-157 642.62,-157 642.62,-157 757.74,-157 757.74,-157"/>
<polygon fill="black" stroke="black" points="757.74,-160.5 767.74,-157 757.74,-153.5 757.74,-160.5"/>
</g>
<!-- TabSettingsComponent -->
<g id="node8" class="node">
<title>TabSettingsComponent</title>
<polygon fill="#ffffb3" stroke="black" points="534.21,-122 385.79,-122 385.79,-86 534.21,-86 534.21,-122"/>
<text text-anchor="middle" x="460" y="-99.8" font-family="Times,serif" font-size="14.00">TabSettingsComponent</text>
</g>
<!-- TabSettingsComponent&#45;&gt;SettingsModule -->
<g id="edge8" class="edge">
<title>TabSettingsComponent&#45;&gt;SettingsModule</title>
<path fill="none" stroke="black" d="M493.62,-122.03C493.62,-139.06 493.62,-162 493.62,-162 493.62,-162 757.56,-162 757.56,-162"/>
<polygon fill="black" stroke="black" points="757.56,-165.5 767.56,-162 757.56,-158.5 757.56,-165.5"/>
</g>
<!-- WindowControlsComponent -->
<g id="node9" class="node">
<title>WindowControlsComponent</title>
<polygon fill="#ffffb3" stroke="black" points="367.77,-122 190.23,-122 190.23,-86 367.77,-86 367.77,-122"/>
<text text-anchor="middle" x="279" y="-99.8" font-family="Times,serif" font-size="14.00">WindowControlsComponent</text>
</g>
<!-- WindowControlsComponent&#45;&gt;SettingsModule -->
<g id="edge9" class="edge">
<title>WindowControlsComponent&#45;&gt;SettingsModule</title>
<path fill="none" stroke="black" d="M279,-122.22C279,-140.83 279,-167 279,-167 279,-167 757.64,-167 757.64,-167"/>
<polygon fill="black" stroke="black" points="757.64,-170.5 767.64,-167 757.64,-163.5 757.64,-170.5"/>
</g>
<!-- AdvancedComponent  -->
<g id="node11" class="node">
<title>AdvancedComponent </title>
<polygon fill="#fb8072" stroke="black" points="1215.58,-252 1074.42,-252 1074.42,-216 1215.58,-216 1215.58,-252"/>
<text text-anchor="middle" x="1145" y="-229.8" font-family="Times,serif" font-size="14.00">AdvancedComponent </text>
</g>
<!-- SettingsModule&#45;&gt;AdvancedComponent  -->
<g id="edge10" class="edge">
<title>SettingsModule&#45;&gt;AdvancedComponent </title>
<path fill="none" stroke="black" stroke-dasharray="5,2" d="M872.43,-177C949.76,-177 1085.36,-177 1085.36,-177 1085.36,-177 1085.36,-205.96 1085.36,-205.96"/>
<polygon fill="black" stroke="black" points="1081.86,-205.96 1085.36,-215.96 1088.86,-205.96 1081.86,-205.96"/>
</g>
<!-- BackgroundComponent  -->
<g id="node12" class="node">
<title>BackgroundComponent </title>
<polygon fill="#fb8072" stroke="black" points="1056.76,-252 903.24,-252 903.24,-216 1056.76,-216 1056.76,-252"/>
<text text-anchor="middle" x="980" y="-229.8" font-family="Times,serif" font-size="14.00">BackgroundComponent </text>
</g>
<!-- SettingsModule&#45;&gt;BackgroundComponent  -->
<g id="edge11" class="edge">
<title>SettingsModule&#45;&gt;BackgroundComponent </title>
<path fill="none" stroke="black" stroke-dasharray="5,2" d="M872.5,-182C903.74,-182 937.35,-182 937.35,-182 937.35,-182 937.35,-205.81 937.35,-205.81"/>
<polygon fill="black" stroke="black" points="933.85,-205.81 937.35,-215.81 940.85,-205.81 933.85,-205.81"/>
</g>
<!-- SettingsComponent  -->
<g id="node13" class="node">
<title>SettingsComponent </title>
<polygon fill="#fb8072" stroke="black" points="884.95,-252 755.05,-252 755.05,-216 884.95,-216 884.95,-252"/>
<text text-anchor="middle" x="820" y="-229.8" font-family="Times,serif" font-size="14.00">SettingsComponent </text>
</g>
<!-- SettingsModule&#45;&gt;SettingsComponent  -->
<g id="edge12" class="edge">
<title>SettingsModule&#45;&gt;SettingsComponent </title>
<path fill="none" stroke="black" stroke-dasharray="5,2" d="M820,-187.11C820,-187.11 820,-205.99 820,-205.99"/>
<polygon fill="black" stroke="black" points="816.5,-205.99 820,-215.99 823.5,-205.99 816.5,-205.99"/>
</g>
<!-- ShellComponent  -->
<g id="node14" class="node">
<title>ShellComponent </title>
<polygon fill="#fb8072" stroke="black" points="736.61,-252 623.39,-252 623.39,-216 736.61,-216 736.61,-252"/>
<text text-anchor="middle" x="680" y="-229.8" font-family="Times,serif" font-size="14.00">ShellComponent </text>
</g>
<!-- SettingsModule&#45;&gt;ShellComponent  -->
<g id="edge13" class="edge">
<title>SettingsModule&#45;&gt;ShellComponent </title>
<path fill="none" stroke="black" stroke-dasharray="5,2" d="M767.74,-182C738.67,-182 708.29,-182 708.29,-182 708.29,-182 708.29,-205.81 708.29,-205.81"/>
<polygon fill="black" stroke="black" points="704.79,-205.81 708.29,-215.81 711.79,-205.81 704.79,-205.81"/>
</g>
<!-- TabSettingsComponent  -->
<g id="node15" class="node">
<title>TabSettingsComponent </title>
<polygon fill="#fb8072" stroke="black" points="604.71,-252 453.29,-252 453.29,-216 604.71,-216 604.71,-252"/>
<text text-anchor="middle" x="529" y="-229.8" font-family="Times,serif" font-size="14.00">TabSettingsComponent </text>
</g>
<!-- SettingsModule&#45;&gt;TabSettingsComponent  -->
<g id="edge14" class="edge">
<title>SettingsModule&#45;&gt;TabSettingsComponent </title>
<path fill="none" stroke="black" stroke-dasharray="5,2" d="M767.58,-177C696.52,-177 578.4,-177 578.4,-177 578.4,-177 578.4,-205.96 578.4,-205.96"/>
<polygon fill="black" stroke="black" points="574.9,-205.96 578.4,-215.96 581.9,-205.96 574.9,-205.96"/>
</g>
<!-- SettingsService -->
<g id="node16" class="node">
<title>SettingsService</title>
<ellipse fill="#fdb462" stroke="black" cx="95" cy="-104" rx="71.22" ry="18"/>
<text text-anchor="middle" x="95" y="-99.8" font-family="Times,serif" font-size="14.00">SettingsService</text>
</g>
<!-- SettingsService&#45;&gt;SettingsModule -->
<g id="edge15" class="edge">
<title>SettingsService&#45;&gt;SettingsModule</title>
<path fill="none" stroke="black" d="M95,-122.22C95,-142.37 95,-172 95,-172 95,-172 757.57,-172 757.57,-172"/>
<polygon fill="black" stroke="black" points="757.57,-175.5 767.57,-172 757.57,-168.5 757.57,-175.5"/>
</g>
</g>
</svg>
