<?xml version="1.0" encoding="UTF-8" standalone="no"?>
<!DOCTYPE svg PUBLIC "-//W3C//DTD SVG 1.1//EN"
 "http://www.w3.org/Graphics/SVG/1.1/DTD/svg11.dtd">
<!-- Generated by graphviz version 2.47.0 (20210316.0004)
 -->
<!-- Title: dependencies Pages: 1 -->
<svg width="3348pt" height="504pt"
 viewBox="0.00 0.00 3348.00 504.00" xmlns="http://www.w3.org/2000/svg" xmlns:xlink="http://www.w3.org/1999/xlink">
<g id="graph0" class="graph" transform="scale(1 1) rotate(0) translate(4 500)">
<title>dependencies</title>
<polygon fill="white" stroke="transparent" points="-4,4 -4,-500 3344,-500 3344,4 -4,4"/>
<text text-anchor="start" x="1649.01" y="-42.4" font-family="sans-serif" font-weight="bold" font-size="14.00">Legend</text>
<polygon fill="#ffffb3" stroke="transparent" points="1436,-10 1436,-30 1456,-30 1456,-10 1436,-10"/>
<text text-anchor="start" x="1459.63" y="-15.4" font-family="sans-serif" font-size="14.00"> &#160;Declarations</text>
<polygon fill="#8dd3c7" stroke="transparent" points="1549,-10 1549,-30 1569,-30 1569,-10 1549,-10"/>
<text text-anchor="start" x="1572.73" y="-15.4" font-family="sans-serif" font-size="14.00"> &#160;Module</text>
<polygon fill="#80b1d3" stroke="transparent" points="1635,-10 1635,-30 1655,-30 1655,-10 1635,-10"/>
<text text-anchor="start" x="1658.78" y="-15.4" font-family="sans-serif" font-size="14.00"> &#160;Bootstrap</text>
<polygon fill="#fdb462" stroke="transparent" points="1732,-10 1732,-30 1752,-30 1752,-10 1732,-10"/>
<text text-anchor="start" x="1755.67" y="-15.4" font-family="sans-serif" font-size="14.00"> &#160;Providers</text>
<polygon fill="#fb8072" stroke="transparent" points="1828,-10 1828,-30 1848,-30 1848,-10 1828,-10"/>
<text text-anchor="start" x="1851.73" y="-15.4" font-family="sans-serif" font-size="14.00"> &#160;Exports</text>
<g id="clust1" class="cluster">
<title>cluster_AppModule</title>
<polygon fill="none" stroke="black" stroke-dasharray="1,5" points="1229,-290 1229,-488 1758,-488 1758,-290 1229,-290"/>
</g>
<g id="clust2" class="cluster">
<title>cluster_AppModule_declarations</title>
<polygon fill="none" stroke="black" points="1464,-298 1464,-350 1750,-350 1750,-298 1464,-298"/>
</g>
<g id="clust5" class="cluster">
<title>cluster_AppModule_imports</title>
<polygon fill="none" stroke="black" points="1237,-298 1237,-350 1456,-350 1456,-298 1237,-298"/>
</g>
<g id="clust6" class="cluster">
<title>cluster_AppModule_exports</title>
<polygon fill="none" stroke="black" points="1311,-428 1311,-480 1477,-480 1477,-428 1311,-428"/>
</g>
<g id="clust7" class="cluster">
<title>cluster_AppModule_bootstrap</title>
<polygon fill="none" stroke="black" points="1485,-428 1485,-480 1609,-480 1609,-428 1485,-428"/>
</g>
<g id="clust9" class="cluster">
<title>cluster_SettingsModule</title>
<polygon fill="none" stroke="black" stroke-dasharray="1,5" points="1766,-138 1766,-358 3332,-358 3332,-138 1766,-138"/>
</g>
<g id="clust10" class="cluster">
<title>cluster_SettingsModule_declarations</title>
<polygon fill="none" stroke="black" points="1940,-146 1940,-198 3324,-198 3324,-146 1940,-146"/>
</g>
<g id="clust21" class="cluster">
<title>cluster_SettingsModule_exports</title>
<polygon fill="none" stroke="black" points="2126,-298 2126,-350 2905,-350 2905,-298 2126,-298"/>
</g>
<g id="clust23" class="cluster">
<title>cluster_SettingsModule_providers</title>
<polygon fill="none" stroke="black" points="1774,-146 1774,-198 1932,-198 1932,-146 1774,-146"/>
</g>
<g id="clust30" class="cluster">
<title>cluster_TabsModule</title>
<polygon fill="none" stroke="black" stroke-dasharray="1,5" points="360,-214 360,-358 1221,-358 1221,-214 360,-214"/>
</g>
<g id="clust31" class="cluster">
<title>cluster_TabsModule_declarations</title>
<polygon fill="none" stroke="black" points="932,-222 932,-274 1213,-274 1213,-222 932,-222"/>
</g>
<g id="clust34" class="cluster">
<title>cluster_TabsModule_imports</title>
<polygon fill="none" stroke="black" points="368,-222 368,-350 494,-350 494,-222 368,-222"/>
</g>
<g id="clust35" class="cluster">
<title>cluster_TabsModule_exports</title>
<polygon fill="none" stroke="black" points="636,-222 636,-274 924,-274 924,-222 636,-222"/>
</g>
<g id="clust37" class="cluster">
<title>cluster_TabsModule_providers</title>
<polygon fill="none" stroke="black" points="502,-222 502,-274 628,-274 628,-222 502,-222"/>
</g>
<g id="clust38" class="cluster">
<title>cluster_TaskListModule</title>
<polygon fill="none" stroke="black" stroke-dasharray="1,5" points="356,-70 356,-206 694,-206 694,-70 356,-70"/>
</g>
<g id="clust39" class="cluster">
<title>cluster_TaskListModule_declarations</title>
<polygon fill="none" stroke="black" points="368,-146 368,-198 514,-198 514,-146 368,-146"/>
</g>
<g id="clust40" class="cluster">
<title>cluster_TaskListModule_TaskListComponent_providers</title>
<polygon fill="none" stroke="black" points="364,-78 364,-130 528,-130 528,-78 364,-78"/>
</g>
<g id="clust42" class="cluster">
<title>cluster_TaskListModule_exports</title>
<polygon fill="none" stroke="black" points="536,-78 536,-130 686,-130 686,-78 536,-78"/>
</g>
<g id="clust45" class="cluster">
<title>cluster_TerminalModule</title>
<polygon fill="none" stroke="black" stroke-dasharray="1,5" points="8,-138 8,-282 348,-282 348,-138 8,-138"/>
</g>
<g id="clust46" class="cluster">
<title>cluster_TerminalModule_declarations</title>
<polygon fill="none" stroke="black" points="40,-222 40,-274 330,-274 330,-222 40,-222"/>
</g>
<g id="clust47" class="cluster">
<title>cluster_TerminalModule_TerminalComponent_providers</title>
<polygon fill="none" stroke="black" points="16,-146 16,-198 180,-198 180,-146 16,-146"/>
</g>
<g id="clust50" class="cluster">
<title>cluster_TerminalModule_exports</title>
<polygon fill="none" stroke="black" points="188,-146 188,-198 340,-198 340,-146 188,-146"/>
</g>
<!-- AppComponent -->
<g id="node1" class="node">
<title>AppComponent</title>
<polygon fill="#ffffb3" stroke="black" points="1741.94,-342 1636.06,-342 1636.06,-306 1741.94,-306 1741.94,-342"/>
<text text-anchor="middle" x="1689" y="-319.8" font-family="Times,serif" font-size="14.00">AppComponent</text>
</g>
<!-- AppModule -->
<g id="node3" class="node">
<title>AppModule</title>
<polygon fill="#8dd3c7" stroke="black" points="1508.66,-407 1505.66,-411 1484.66,-411 1481.66,-407 1425.34,-407 1425.34,-371 1508.66,-371 1508.66,-407"/>
<text text-anchor="middle" x="1467" y="-384.8" font-family="Times,serif" font-size="14.00">AppModule</text>
</g>
<!-- AppComponent&#45;&gt;AppModule -->
<g id="edge1" class="edge">
<title>AppComponent&#45;&gt;AppModule</title>
<path fill="none" stroke="black" d="M1689,-342.11C1689,-361.34 1689,-389 1689,-389 1689,-389 1518.76,-389 1518.76,-389"/>
<polygon fill="black" stroke="black" points="1518.76,-385.5 1508.76,-389 1518.76,-392.5 1518.76,-385.5"/>
</g>
<!-- AppTopbarComponent -->
<g id="node2" class="node">
<title>AppTopbarComponent</title>
<polygon fill="#ffffb3" stroke="black" points="1617.87,-342 1472.13,-342 1472.13,-306 1617.87,-306 1617.87,-342"/>
<text text-anchor="middle" x="1545" y="-319.8" font-family="Times,serif" font-size="14.00">AppTopbarComponent</text>
</g>
<!-- AppTopbarComponent&#45;&gt;AppModule -->
<g id="edge2" class="edge">
<title>AppTopbarComponent&#45;&gt;AppModule</title>
<path fill="none" stroke="black" d="M1490.45,-342.11C1490.45,-342.11 1490.45,-360.99 1490.45,-360.99"/>
<polygon fill="black" stroke="black" points="1486.95,-360.99 1490.45,-370.99 1493.95,-360.99 1486.95,-360.99"/>
</g>
<!-- AppTopbarComponent  -->
<g id="node6" class="node">
<title>AppTopbarComponent </title>
<polygon fill="#fb8072" stroke="black" points="1468.87,-472 1319.13,-472 1319.13,-436 1468.87,-436 1468.87,-472"/>
<text text-anchor="middle" x="1394" y="-449.8" font-family="Times,serif" font-size="14.00">AppTopbarComponent </text>
</g>
<!-- AppModule&#45;&gt;AppTopbarComponent  -->
<g id="edge5" class="edge">
<title>AppModule&#45;&gt;AppTopbarComponent </title>
<path fill="none" stroke="black" stroke-dasharray="5,2" d="M1446.93,-407.11C1446.93,-407.11 1446.93,-425.99 1446.93,-425.99"/>
<polygon fill="black" stroke="black" points="1443.43,-425.99 1446.93,-435.99 1450.43,-425.99 1443.43,-425.99"/>
</g>
<!-- AppComponent  -->
<g id="node7" class="node">
<title>AppComponent </title>
<polygon fill="#80b1d3" stroke="black" points="1601.44,-472 1492.56,-472 1492.56,-436 1601.44,-436 1601.44,-472"/>
<text text-anchor="middle" x="1547" y="-449.8" font-family="Times,serif" font-size="14.00">AppComponent </text>
</g>
<!-- AppModule&#45;&gt;AppComponent  -->
<g id="edge6" class="edge">
<title>AppModule&#45;&gt;AppComponent </title>
<path fill="none" stroke="black" stroke-dasharray="1,5" d="M1500.68,-407.11C1500.68,-407.11 1500.68,-425.99 1500.68,-425.99"/>
<polygon fill="black" stroke="black" points="1497.18,-425.99 1500.68,-435.99 1504.18,-425.99 1497.18,-425.99"/>
</g>
<!-- SharedModule -->
<g id="node4" class="node">
<title>SharedModule</title>
<polygon fill="#8dd3c7" stroke="black" points="1448.42,-342 1445.42,-346 1424.42,-346 1421.42,-342 1349.58,-342 1349.58,-306 1448.42,-306 1448.42,-342"/>
<text text-anchor="middle" x="1399" y="-319.8" font-family="Times,serif" font-size="14.00">SharedModule</text>
</g>
<!-- SharedModule&#45;&gt;AppModule -->
<g id="edge3" class="edge">
<title>SharedModule&#45;&gt;AppModule</title>
<path fill="none" stroke="black" d="M1436.69,-342.11C1436.69,-342.11 1436.69,-360.99 1436.69,-360.99"/>
<polygon fill="black" stroke="black" points="1433.19,-360.99 1436.69,-370.99 1440.19,-360.99 1433.19,-360.99"/>
</g>
<!-- TerminalModule -->
<g id="node27" class="node">
<title>TerminalModule</title>
<polygon fill="#8dd3c7" stroke="black" points="486.36,-342 483.36,-346 462.36,-346 459.36,-342 375.64,-342 375.64,-306 486.36,-306 486.36,-342"/>
<text text-anchor="middle" x="431" y="-319.8" font-family="Times,serif" font-size="14.00">TerminalModule</text>
</g>
<!-- SharedModule&#45;&gt;TerminalModule -->
<g id="edge37" class="edge">
<title>SharedModule&#45;&gt;TerminalModule</title>
<path fill="none" stroke="black" d="M1387.48,-342.04C1387.48,-349.75 1387.48,-357 1387.48,-357 1387.48,-357 431,-357 431,-357 431,-357 431,-352.04 431,-352.04"/>
<polygon fill="black" stroke="black" points="434.5,-352.04 431,-342.04 427.5,-352.04 434.5,-352.04"/>
</g>
<!-- TabsModule -->
<g id="node5" class="node">
<title>TabsModule</title>
<polygon fill="#8dd3c7" stroke="black" points="1331.26,-342 1328.26,-346 1307.26,-346 1304.26,-342 1244.74,-342 1244.74,-306 1331.26,-306 1331.26,-342"/>
<text text-anchor="middle" x="1288" y="-319.8" font-family="Times,serif" font-size="14.00">TabsModule</text>
</g>
<!-- TabsModule&#45;&gt;AppModule -->
<g id="edge4" class="edge">
<title>TabsModule&#45;&gt;AppModule</title>
<path fill="none" stroke="black" d="M1325.35,-342.11C1325.35,-361.34 1325.35,-389 1325.35,-389 1325.35,-389 1415.27,-389 1415.27,-389"/>
<polygon fill="black" stroke="black" points="1415.27,-392.5 1425.27,-389 1415.27,-385.5 1415.27,-392.5"/>
</g>
<!-- SplitPanelComponent  -->
<g id="node28" class="node">
<title>SplitPanelComponent </title>
<polygon fill="#fb8072" stroke="black" points="916.39,-266 773.61,-266 773.61,-230 916.39,-230 916.39,-266"/>
<text text-anchor="middle" x="845" y="-243.8" font-family="Times,serif" font-size="14.00">SplitPanelComponent </text>
</g>
<!-- TabsModule&#45;&gt;SplitPanelComponent  -->
<g id="edge27" class="edge">
<title>TabsModule&#45;&gt;SplitPanelComponent </title>
<path fill="none" stroke="black" stroke-dasharray="5,2" d="M1244.72,-315C1133.25,-315 845,-315 845,-315 845,-315 845,-276.31 845,-276.31"/>
<polygon fill="black" stroke="black" points="848.5,-276.31 845,-266.31 841.5,-276.31 848.5,-276.31"/>
</g>
<!-- TabsComponent  -->
<g id="node29" class="node">
<title>TabsComponent </title>
<polygon fill="#fb8072" stroke="black" points="756.04,-266 643.96,-266 643.96,-230 756.04,-230 756.04,-266"/>
<text text-anchor="middle" x="700" y="-243.8" font-family="Times,serif" font-size="14.00">TabsComponent </text>
</g>
<!-- TabsModule&#45;&gt;TabsComponent  -->
<g id="edge28" class="edge">
<title>TabsModule&#45;&gt;TabsComponent </title>
<path fill="none" stroke="black" stroke-dasharray="5,2" d="M1244.37,-324C1105.26,-324 681.33,-324 681.33,-324 681.33,-324 681.33,-276.01 681.33,-276.01"/>
<polygon fill="black" stroke="black" points="684.83,-276.01 681.33,-266.01 677.83,-276.01 684.83,-276.01"/>
</g>
<!-- TabsModule&#45;&gt;TabsComponent  -->
<g id="edge29" class="edge">
<title>TabsModule&#45;&gt;TabsComponent </title>
<path fill="none" stroke="black" stroke-dasharray="1,5" d="M1244.27,-320C1110.96,-320 718.67,-320 718.67,-320 718.67,-320 718.67,-276.17 718.67,-276.17"/>
<polygon fill="black" stroke="black" points="722.17,-276.17 718.67,-266.17 715.17,-276.17 722.17,-276.17"/>
</g>
<!-- AdvancedComponent -->
<g id="node8" class="node">
<title>AdvancedComponent</title>
<polygon fill="#ffffb3" stroke="black" points="3316.08,-190 3177.92,-190 3177.92,-154 3316.08,-154 3316.08,-190"/>
<text text-anchor="middle" x="3247" y="-167.8" font-family="Times,serif" font-size="14.00">AdvancedComponent</text>
</g>
<!-- SettingsModule -->
<g id="node17" class="node">
<title>SettingsModule</title>
<polygon fill="#8dd3c7" stroke="black" points="2553.16,-266 2550.16,-270 2529.16,-270 2526.16,-266 2448.84,-266 2448.84,-230 2553.16,-230 2553.16,-266"/>
<text text-anchor="middle" x="2501" y="-243.8" font-family="Times,serif" font-size="14.00">SettingsModule</text>
</g>
<!-- AdvancedComponent&#45;&gt;SettingsModule -->
<g id="edge7" class="edge">
<title>AdvancedComponent&#45;&gt;SettingsModule</title>
<path fill="none" stroke="black" d="M3247,-190.38C3247,-214.28 3247,-253 3247,-253 3247,-253 2563.46,-253 2563.46,-253"/>
<polygon fill="black" stroke="black" points="2563.46,-249.5 2553.46,-253 2563.46,-256.5 2563.46,-249.5"/>
</g>
<!-- BackgroundComponent -->
<g id="node9" class="node">
<title>BackgroundComponent</title>
<polygon fill="#ffffb3" stroke="black" points="3159.76,-190 3010.24,-190 3010.24,-154 3159.76,-154 3159.76,-190"/>
<text text-anchor="middle" x="3085" y="-167.8" font-family="Times,serif" font-size="14.00">BackgroundComponent</text>
</g>
<!-- BackgroundComponent&#45;&gt;SettingsModule -->
<g id="edge8" class="edge">
<title>BackgroundComponent&#45;&gt;SettingsModule</title>
<path fill="none" stroke="black" d="M3085,-190.01C3085,-212.49 3085,-248 3085,-248 3085,-248 2563.34,-248 2563.34,-248"/>
<polygon fill="black" stroke="black" points="2563.34,-244.5 2553.34,-248 2563.34,-251.5 2563.34,-244.5"/>
</g>
<!-- CursorComponent -->
<g id="node10" class="node">
<title>CursorComponent</title>
<polygon fill="#ffffb3" stroke="black" points="2991.94,-190 2872.06,-190 2872.06,-154 2991.94,-154 2991.94,-190"/>
<text text-anchor="middle" x="2932" y="-167.8" font-family="Times,serif" font-size="14.00">CursorComponent</text>
</g>
<!-- CursorComponent&#45;&gt;SettingsModule -->
<g id="edge9" class="edge">
<title>CursorComponent&#45;&gt;SettingsModule</title>
<path fill="none" stroke="black" d="M2884.54,-190.17C2884.54,-211.5 2884.54,-244 2884.54,-244 2884.54,-244 2563.52,-244 2563.52,-244"/>
<polygon fill="black" stroke="black" points="2563.53,-240.5 2553.52,-244 2563.52,-247.5 2563.53,-240.5"/>
</g>
<!-- FontComponent -->
<g id="node11" class="node">
<title>FontComponent</title>
<polygon fill="#ffffb3" stroke="black" points="2854.51,-190 2747.49,-190 2747.49,-154 2854.51,-154 2854.51,-190"/>
<text text-anchor="middle" x="2801" y="-167.8" font-family="Times,serif" font-size="14.00">FontComponent</text>
</g>
<!-- FontComponent&#45;&gt;SettingsModule -->
<g id="edge10" class="edge">
<title>FontComponent&#45;&gt;SettingsModule</title>
<path fill="none" stroke="black" d="M2751.35,-190.31C2751.35,-210.15 2751.35,-239 2751.35,-239 2751.35,-239 2563.18,-239 2563.18,-239"/>
<polygon fill="black" stroke="black" points="2563.18,-235.5 2553.18,-239 2563.18,-242.5 2563.18,-235.5"/>
</g>
<!-- ForegroundComponent -->
<g id="node12" class="node">
<title>ForegroundComponent</title>
<polygon fill="#ffffb3" stroke="black" points="2729.15,-190 2582.85,-190 2582.85,-154 2729.15,-154 2729.15,-190"/>
<text text-anchor="middle" x="2656" y="-167.8" font-family="Times,serif" font-size="14.00">ForegroundComponent</text>
</g>
<!-- ForegroundComponent&#45;&gt;SettingsModule -->
<g id="edge11" class="edge">
<title>ForegroundComponent&#45;&gt;SettingsModule</title>
<path fill="none" stroke="black" d="M2681.01,-190.22C2681.01,-208.83 2681.01,-235 2681.01,-235 2681.01,-235 2563.55,-235 2563.55,-235"/>
<polygon fill="black" stroke="black" points="2563.55,-231.5 2553.55,-235 2563.55,-238.5 2563.55,-231.5"/>
</g>
<!-- SettingsComponent -->
<g id="node13" class="node">
<title>SettingsComponent</title>
<polygon fill="#ffffb3" stroke="black" points="2564.45,-190 2437.55,-190 2437.55,-154 2564.45,-154 2564.45,-190"/>
<text text-anchor="middle" x="2501" y="-167.8" font-family="Times,serif" font-size="14.00">SettingsComponent</text>
</g>
<!-- SettingsComponent&#45;&gt;SettingsModule -->
<g id="edge12" class="edge">
<title>SettingsComponent&#45;&gt;SettingsModule</title>
<path fill="none" stroke="black" d="M2501,-190.01C2501,-190.01 2501,-219.85 2501,-219.85"/>
<polygon fill="black" stroke="black" points="2497.5,-219.85 2501,-229.85 2504.5,-219.85 2497.5,-219.85"/>
</g>
<!-- ShellComponent -->
<g id="node14" class="node">
<title>ShellComponent</title>
<polygon fill="#ffffb3" stroke="black" points="2420.11,-190 2309.89,-190 2309.89,-154 2420.11,-154 2420.11,-190"/>
<text text-anchor="middle" x="2365" y="-167.8" font-family="Times,serif" font-size="14.00">ShellComponent</text>
</g>
<!-- ShellComponent&#45;&gt;SettingsModule -->
<g id="edge13" class="edge">
<title>ShellComponent&#45;&gt;SettingsModule</title>
<path fill="none" stroke="black" d="M2381.85,-190.03C2381.85,-209.58 2381.85,-238 2381.85,-238 2381.85,-238 2438.74,-238 2438.74,-238"/>
<polygon fill="black" stroke="black" points="2438.74,-241.5 2448.74,-238 2438.74,-234.5 2438.74,-241.5"/>
</g>
<!-- TabSettingsComponent -->
<g id="node15" class="node">
<title>TabSettingsComponent</title>
<polygon fill="#ffffb3" stroke="black" points="2292.21,-190 2143.79,-190 2143.79,-154 2292.21,-154 2292.21,-190"/>
<text text-anchor="middle" x="2218" y="-167.8" font-family="Times,serif" font-size="14.00">TabSettingsComponent</text>
</g>
<!-- TabSettingsComponent&#45;&gt;SettingsModule -->
<g id="edge14" class="edge">
<title>TabSettingsComponent&#45;&gt;SettingsModule</title>
<path fill="none" stroke="black" d="M2238.54,-190.03C2238.54,-210.77 2238.54,-242 2238.54,-242 2238.54,-242 2438.83,-242 2438.83,-242"/>
<polygon fill="black" stroke="black" points="2438.83,-245.5 2448.83,-242 2438.83,-238.5 2438.83,-245.5"/>
</g>
<!-- WindowControlsComponent -->
<g id="node16" class="node">
<title>WindowControlsComponent</title>
<polygon fill="#ffffb3" stroke="black" points="2125.77,-190 1948.23,-190 1948.23,-154 2125.77,-154 2125.77,-190"/>
<text text-anchor="middle" x="2037" y="-167.8" font-family="Times,serif" font-size="14.00">WindowControlsComponent</text>
</g>
<!-- WindowControlsComponent&#45;&gt;SettingsModule -->
<g id="edge15" class="edge">
<title>WindowControlsComponent&#45;&gt;SettingsModule</title>
<path fill="none" stroke="black" d="M2037,-190.29C2037,-212.21 2037,-246 2037,-246 2037,-246 2438.68,-246 2438.68,-246"/>
<polygon fill="black" stroke="black" points="2438.68,-249.5 2448.68,-246 2438.68,-242.5 2438.68,-249.5"/>
</g>
<!-- SettingsModule&#45;&gt;TabsModule -->
<g id="edge24" class="edge">
<title>SettingsModule&#45;&gt;TabsModule</title>
<path fill="none" stroke="black" d="M2448.73,-254C2218.05,-254 1302.46,-254 1302.46,-254 1302.46,-254 1302.46,-295.97 1302.46,-295.97"/>
<polygon fill="black" stroke="black" points="1298.96,-295.97 1302.46,-305.97 1305.96,-295.97 1298.96,-295.97"/>
</g>
<!-- AdvancedComponent  -->
<g id="node18" class="node">
<title>AdvancedComponent </title>
<polygon fill="#fb8072" stroke="black" points="2896.58,-342 2755.42,-342 2755.42,-306 2896.58,-306 2896.58,-342"/>
<text text-anchor="middle" x="2826" y="-319.8" font-family="Times,serif" font-size="14.00">AdvancedComponent </text>
</g>
<!-- SettingsModule&#45;&gt;AdvancedComponent  -->
<g id="edge16" class="edge">
<title>SettingsModule&#45;&gt;AdvancedComponent </title>
<path fill="none" stroke="black" stroke-dasharray="5,2" d="M2553.23,-257C2640.11,-257 2804.86,-257 2804.86,-257 2804.86,-257 2804.86,-295.69 2804.86,-295.69"/>
<polygon fill="black" stroke="black" points="2801.36,-295.69 2804.86,-305.69 2808.36,-295.69 2801.36,-295.69"/>
</g>
<!-- BackgroundComponent  -->
<g id="node19" class="node">
<title>BackgroundComponent </title>
<polygon fill="#fb8072" stroke="black" points="2737.76,-342 2584.24,-342 2584.24,-306 2737.76,-306 2737.76,-342"/>
<text text-anchor="middle" x="2661" y="-319.8" font-family="Times,serif" font-size="14.00">BackgroundComponent </text>
</g>
<!-- SettingsModule&#45;&gt;BackgroundComponent  -->
<g id="edge17" class="edge">
<title>SettingsModule&#45;&gt;BackgroundComponent </title>
<path fill="none" stroke="black" stroke-dasharray="5,2" d="M2553.43,-262C2590.15,-262 2632.69,-262 2632.69,-262 2632.69,-262 2632.69,-295.73 2632.69,-295.73"/>
<polygon fill="black" stroke="black" points="2629.19,-295.73 2632.69,-305.73 2636.19,-295.73 2629.19,-295.73"/>
</g>
<!-- SettingsComponent  -->
<g id="node20" class="node">
<title>SettingsComponent </title>
<polygon fill="#fb8072" stroke="black" points="2565.95,-342 2436.05,-342 2436.05,-306 2565.95,-306 2565.95,-342"/>
<text text-anchor="middle" x="2501" y="-319.8" font-family="Times,serif" font-size="14.00">SettingsComponent </text>
</g>
<!-- SettingsModule&#45;&gt;SettingsComponent  -->
<g id="edge18" class="edge">
<title>SettingsModule&#45;&gt;SettingsComponent </title>
<path fill="none" stroke="black" stroke-dasharray="5,2" d="M2501,-266.01C2501,-266.01 2501,-295.85 2501,-295.85"/>
<polygon fill="black" stroke="black" points="2497.5,-295.85 2501,-305.85 2504.5,-295.85 2497.5,-295.85"/>
</g>
<!-- ShellComponent  -->
<g id="node21" class="node">
<title>ShellComponent </title>
<polygon fill="#fb8072" stroke="black" points="2417.61,-342 2304.39,-342 2304.39,-306 2417.61,-306 2417.61,-342"/>
<text text-anchor="middle" x="2361" y="-319.8" font-family="Times,serif" font-size="14.00">ShellComponent </text>
</g>
<!-- SettingsModule&#45;&gt;ShellComponent  -->
<g id="edge19" class="edge">
<title>SettingsModule&#45;&gt;ShellComponent </title>
<path fill="none" stroke="black" stroke-dasharray="5,2" d="M2448.49,-262C2403.49,-262 2345.9,-262 2345.9,-262 2345.9,-262 2345.9,-295.73 2345.9,-295.73"/>
<polygon fill="black" stroke="black" points="2342.4,-295.73 2345.9,-305.73 2349.4,-295.73 2342.4,-295.73"/>
</g>
<!-- TabSettingsComponent  -->
<g id="node22" class="node">
<title>TabSettingsComponent </title>
<polygon fill="#fb8072" stroke="black" points="2285.71,-342 2134.29,-342 2134.29,-306 2285.71,-306 2285.71,-342"/>
<text text-anchor="middle" x="2210" y="-319.8" font-family="Times,serif" font-size="14.00">TabSettingsComponent </text>
</g>
<!-- SettingsModule&#45;&gt;TabSettingsComponent  -->
<g id="edge20" class="edge">
<title>SettingsModule&#45;&gt;TabSettingsComponent </title>
<path fill="none" stroke="black" stroke-dasharray="5,2" d="M2448.8,-258C2360.51,-258 2191.21,-258 2191.21,-258 2191.21,-258 2191.21,-295.97 2191.21,-295.97"/>
<polygon fill="black" stroke="black" points="2187.71,-295.97 2191.21,-305.97 2194.71,-295.97 2187.71,-295.97"/>
</g>
<!-- SettingsService -->
<g id="node23" class="node">
<title>SettingsService</title>
<ellipse fill="#fdb462" stroke="black" cx="1853" cy="-172" rx="71.22" ry="18"/>
<text text-anchor="middle" x="1853" y="-167.8" font-family="Times,serif" font-size="14.00">SettingsService</text>
</g>
<!-- SettingsService&#45;&gt;SettingsModule -->
<g id="edge21" class="edge">
<title>SettingsService&#45;&gt;SettingsModule</title>
<path fill="none" stroke="black" d="M1853,-190.09C1853,-213.13 1853,-250 1853,-250 1853,-250 2438.79,-250 2438.79,-250"/>
<polygon fill="black" stroke="black" points="2438.79,-253.5 2448.79,-250 2438.79,-246.5 2438.79,-253.5"/>
</g>
<!-- SplitPanelComponent -->
<g id="node24" class="node">
<title>SplitPanelComponent</title>
<polygon fill="#ffffb3" stroke="black" points="1205.39,-266 1066.61,-266 1066.61,-230 1205.39,-230 1205.39,-266"/>
<text text-anchor="middle" x="1136" y="-243.8" font-family="Times,serif" font-size="14.00">SplitPanelComponent</text>
</g>
<!-- SplitPanelComponent&#45;&gt;TabsModule -->
<g id="edge22" class="edge">
<title>SplitPanelComponent&#45;&gt;TabsModule</title>
<path fill="none" stroke="black" d="M1205.58,-234C1239.69,-234 1273.54,-234 1273.54,-234 1273.54,-234 1273.54,-295.79 1273.54,-295.79"/>
<polygon fill="black" stroke="black" points="1270.04,-295.79 1273.54,-305.79 1277.04,-295.79 1270.04,-295.79"/>
</g>
<!-- TabsComponent -->
<g id="node25" class="node">
<title>TabsComponent</title>
<polygon fill="#ffffb3" stroke="black" points="1048.05,-266 939.95,-266 939.95,-230 1048.05,-230 1048.05,-266"/>
<text text-anchor="middle" x="994" y="-243.8" font-family="Times,serif" font-size="14.00">TabsComponent</text>
</g>
<!-- TabsComponent&#45;&gt;TabsModule -->
<g id="edge23" class="edge">
<title>TabsComponent&#45;&gt;TabsModule</title>
<path fill="none" stroke="black" d="M994,-266.22C994,-284.83 994,-311 994,-311 994,-311 1234.62,-311 1234.62,-311"/>
<polygon fill="black" stroke="black" points="1234.62,-314.5 1244.62,-311 1234.62,-307.5 1234.62,-314.5"/>
</g>
<!-- TaskListModule -->
<g id="node26" class="node">
<title>TaskListModule</title>
<polygon fill="#8dd3c7" stroke="black" points="486.04,-266 483.04,-270 462.04,-270 459.04,-266 377.96,-266 377.96,-230 486.04,-230 486.04,-266"/>
<text text-anchor="middle" x="432" y="-243.8" font-family="Times,serif" font-size="14.00">TaskListModule</text>
</g>
<!-- TaskListModule&#45;&gt;TabsModule -->
<g id="edge25" class="edge">
<title>TaskListModule&#45;&gt;TabsModule</title>
<path fill="none" stroke="black" d="M486.25,-248C492.28,-248 496.3,-248 496.3,-248 496.3,-248 496.3,-333 496.3,-333 496.3,-333 1234.59,-333 1234.59,-333"/>
<polygon fill="black" stroke="black" points="1234.59,-336.5 1244.59,-333 1234.59,-329.5 1234.59,-336.5"/>
</g>
<!-- TaskListModule&#45;&gt;TerminalModule -->
<g id="edge38" class="edge">
<title>TaskListModule&#45;&gt;TerminalModule</title>
<path fill="none" stroke="black" d="M432,-266.01C432,-266.01 432,-295.85 432,-295.85"/>
<polygon fill="black" stroke="black" points="428.5,-295.85 432,-305.85 435.5,-295.85 428.5,-295.85"/>
</g>
<!-- TaskListComponent  -->
<g id="node33" class="node">
<title>TaskListComponent </title>
<polygon fill="#fb8072" stroke="black" points="677.82,-122 544.18,-122 544.18,-86 677.82,-86 677.82,-122"/>
<text text-anchor="middle" x="611" y="-99.8" font-family="Times,serif" font-size="14.00">TaskListComponent </text>
</g>
<!-- TaskListModule&#45;&gt;TaskListComponent  -->
<g id="edge33" class="edge">
<title>TaskListModule&#45;&gt;TaskListComponent </title>
<path fill="none" stroke="black" stroke-dasharray="5,2" d="M450.09,-229.89C450.09,-220.1 450.09,-210 450.09,-210 450.09,-210 582.05,-210 582.05,-210 582.05,-210 582.05,-132.46 582.05,-132.46"/>
<polygon fill="black" stroke="black" points="585.55,-132.46 582.05,-122.46 578.55,-132.46 585.55,-132.46"/>
</g>
<!-- TerminalModule&#45;&gt;TabsModule -->
<g id="edge26" class="edge">
<title>TerminalModule&#45;&gt;TabsModule</title>
<path fill="none" stroke="black" d="M486.57,-338C486.57,-338 1234.69,-338 1234.69,-338"/>
<polygon fill="black" stroke="black" points="1234.69,-341.5 1244.69,-338 1234.69,-334.5 1234.69,-341.5"/>
</g>
<!-- TerminalComponent  -->
<g id="node37" class="node">
<title>TerminalComponent </title>
<polygon fill="#fb8072" stroke="black" points="332.15,-190 195.85,-190 195.85,-154 332.15,-154 332.15,-190"/>
<text text-anchor="middle" x="264" y="-167.8" font-family="Times,serif" font-size="14.00">TerminalComponent </text>
</g>
<!-- TerminalModule&#45;&gt;TerminalComponent  -->
<g id="edge39" class="edge">
<title>TerminalModule&#45;&gt;TerminalComponent </title>
<path fill="none" stroke="black" stroke-dasharray="5,2" d="M375.45,-315C350.77,-315 327.2,-315 327.2,-315 327.2,-315 327.2,-200.11 327.2,-200.11"/>
<polygon fill="black" stroke="black" points="330.7,-200.11 327.2,-190.11 323.7,-200.11 330.7,-200.11"/>
</g>
<!-- TabService -->
<g id="node30" class="node">
<title>TabService</title>
<ellipse fill="#fdb462" stroke="black" cx="565" cy="-248" rx="55.01" ry="18"/>
<text text-anchor="middle" x="565" y="-243.8" font-family="Times,serif" font-size="14.00">TabService</text>
</g>
<!-- TabService&#45;&gt;TabsModule -->
<g id="edge30" class="edge">
<title>TabService&#45;&gt;TabsModule</title>
<path fill="none" stroke="black" d="M565,-266.38C565,-290.28 565,-329 565,-329 565,-329 1234.67,-329 1234.67,-329"/>
<polygon fill="black" stroke="black" points="1234.67,-332.5 1244.67,-329 1234.67,-325.5 1234.67,-332.5"/>
</g>
<!-- TaskListComponent -->
<g id="node31" class="node">
<title>TaskListComponent</title>
<polygon fill="#ffffb3" stroke="black" points="506.32,-190 375.68,-190 375.68,-154 506.32,-154 506.32,-190"/>
<text text-anchor="middle" x="441" y="-167.8" font-family="Times,serif" font-size="14.00">TaskListComponent</text>
</g>
<!-- TaskListComponent&#45;&gt;TaskListModule -->
<g id="edge31" class="edge">
<title>TaskListComponent&#45;&gt;TaskListModule</title>
<path fill="none" stroke="black" d="M413.91,-190.01C413.91,-190.01 413.91,-219.85 413.91,-219.85"/>
<polygon fill="black" stroke="black" points="410.41,-219.85 413.91,-229.85 417.41,-219.85 410.41,-219.85"/>
</g>
<!-- TaskListService -->
<g id="node32" class="node">
<title>TaskListService</title>
<ellipse fill="#fdb462" stroke="black" cx="446" cy="-104" rx="73.57" ry="18"/>
<text text-anchor="middle" x="446" y="-99.8" font-family="Times,serif" font-size="14.00">TaskListService</text>
</g>
<!-- TaskListService&#45;&gt;TaskListComponent -->
<g id="edge32" class="edge">
<title>TaskListService&#45;&gt;TaskListComponent</title>
<path fill="none" stroke="black" d="M441,-122.22C441,-122.22 441,-143.73 441,-143.73"/>
<polygon fill="black" stroke="black" points="437.5,-143.73 441,-153.73 444.5,-143.73 437.5,-143.73"/>
</g>
<!-- TerminalComponent -->
<g id="node34" class="node">
<title>TerminalComponent</title>
<polygon fill="#ffffb3" stroke="black" points="322.15,-266 189.85,-266 189.85,-230 322.15,-230 322.15,-266"/>
<text text-anchor="middle" x="256" y="-243.8" font-family="Times,serif" font-size="14.00">TerminalComponent</text>
</g>
<!-- TerminalComponent&#45;&gt;TerminalModule -->
<g id="edge34" class="edge">
<title>TerminalComponent&#45;&gt;TerminalModule</title>
<path fill="none" stroke="black" d="M256,-266.01C256,-288.49 256,-324 256,-324 256,-324 365.63,-324 365.63,-324"/>
<polygon fill="black" stroke="black" points="365.63,-327.5 375.63,-324 365.63,-320.5 365.63,-327.5"/>
</g>
<!-- TopBarComponent -->
<g id="node35" class="node">
<title>TopBarComponent</title>
<polygon fill="#ffffb3" stroke="black" points="172.1,-266 47.9,-266 47.9,-230 172.1,-230 172.1,-266"/>
<text text-anchor="middle" x="110" y="-243.8" font-family="Times,serif" font-size="14.00">TopBarComponent</text>
</g>
<!-- TopBarComponent&#45;&gt;TerminalModule -->
<g id="edge36" class="edge">
<title>TopBarComponent&#45;&gt;TerminalModule</title>
<path fill="none" stroke="black" d="M110,-266.03C110,-290.98 110,-333 110,-333 110,-333 365.45,-333 365.45,-333"/>
<polygon fill="black" stroke="black" points="365.45,-336.5 375.45,-333 365.45,-329.5 365.45,-336.5"/>
</g>
<!-- NodePtyService -->
<g id="node36" class="node">
<title>NodePtyService</title>
<ellipse fill="#fdb462" stroke="black" cx="98" cy="-172" rx="73.58" ry="18"/>
<text text-anchor="middle" x="98" y="-167.8" font-family="Times,serif" font-size="14.00">NodePtyService</text>
</g>
<!-- NodePtyService&#45;&gt;TerminalComponent -->
<g id="edge35" class="edge">
<title>NodePtyService&#45;&gt;TerminalComponent</title>
<path fill="none" stroke="black" d="M171.99,-172C177.44,-172 180.86,-172 180.86,-172 180.86,-172 180.86,-248 180.86,-248 180.86,-248 181.75,-248 181.75,-248"/>
<polygon fill="black" stroke="black" points="179.78,-251.5 189.78,-248 179.78,-244.5 179.78,-251.5"/>
</g>
</g>
</svg>
