<?xml version="1.0" encoding="UTF-8" standalone="no"?>
<!DOCTYPE svg PUBLIC "-//W3C//DTD SVG 1.1//EN"
 "http://www.w3.org/Graphics/SVG/1.1/DTD/svg11.dtd">
<!-- Generated by graphviz version 2.47.0 (20210316.0004)
 -->
<!-- Title: dependencies Pages: 1 -->
<svg width="839pt" height="284pt"
 viewBox="0.00 0.00 839.00 284.00" xmlns="http://www.w3.org/2000/svg" xmlns:xlink="http://www.w3.org/1999/xlink">
<g id="graph0" class="graph" transform="scale(1 1) rotate(0) translate(4 280)">
<title>dependencies</title>
<polygon fill="white" stroke="transparent" points="-4,4 -4,-280 835,-280 835,4 -4,4"/>
<text text-anchor="start" x="394.51" y="-42.4" font-family="sans-serif" font-weight="bold" font-size="14.00">Legend</text>
<polygon fill="#ffffb3" stroke="transparent" points="181.5,-10 181.5,-30 201.5,-30 201.5,-10 181.5,-10"/>
<text text-anchor="start" x="205.13" y="-15.4" font-family="sans-serif" font-size="14.00"> &#160;Declarations</text>
<polygon fill="#8dd3c7" stroke="transparent" points="294.5,-10 294.5,-30 314.5,-30 314.5,-10 294.5,-10"/>
<text text-anchor="start" x="318.23" y="-15.4" font-family="sans-serif" font-size="14.00"> &#160;Module</text>
<polygon fill="#80b1d3" stroke="transparent" points="380.5,-10 380.5,-30 400.5,-30 400.5,-10 380.5,-10"/>
<text text-anchor="start" x="404.28" y="-15.4" font-family="sans-serif" font-size="14.00"> &#160;Bootstrap</text>
<polygon fill="#fdb462" stroke="transparent" points="477.5,-10 477.5,-30 497.5,-30 497.5,-10 477.5,-10"/>
<text text-anchor="start" x="501.17" y="-15.4" font-family="sans-serif" font-size="14.00"> &#160;Providers</text>
<polygon fill="#fb8072" stroke="transparent" points="573.5,-10 573.5,-30 593.5,-30 593.5,-10 573.5,-10"/>
<text text-anchor="start" x="597.23" y="-15.4" font-family="sans-serif" font-size="14.00"> &#160;Exports</text>
<g id="clust1" class="cluster">
<title>cluster_TabsModule</title>
<polygon fill="none" stroke="black" stroke-dasharray="1,5" points="8,-70 8,-268 823,-268 823,-70 8,-70"/>
</g>
<g id="clust6" class="cluster">
<title>cluster_TabsModule_exports</title>
<polygon fill="none" stroke="black" points="333,-208 333,-260 621,-260 621,-208 333,-208"/>
</g>
<g id="clust8" class="cluster">
<title>cluster_TabsModule_providers</title>
<polygon fill="none" stroke="black" points="689,-78 689,-130 815,-130 815,-78 689,-78"/>
</g>
<g id="clust2" class="cluster">
<title>cluster_TabsModule_declarations</title>
<polygon fill="none" stroke="black" points="400,-78 400,-130 681,-130 681,-78 400,-78"/>
</g>
<g id="clust5" class="cluster">
<title>cluster_TabsModule_imports</title>
<polygon fill="none" stroke="black" points="16,-78 16,-130 392,-130 392,-78 16,-78"/>
</g>
<!-- SplitPanelComponent -->
<g id="node1" class="node">
<title>SplitPanelComponent</title>
<polygon fill="#ffffb3" stroke="black" points="673.39,-122 534.61,-122 534.61,-86 673.39,-86 673.39,-122"/>
<text text-anchor="middle" x="604" y="-99.8" font-family="Times,serif" font-size="14.00">SplitPanelComponent</text>
</g>
<!-- TabsModule -->
<g id="node3" class="node">
<title>TabsModule</title>
<polygon fill="#8dd3c7" stroke="black" points="440.26,-187 437.26,-191 416.26,-191 413.26,-187 353.74,-187 353.74,-151 440.26,-151 440.26,-187"/>
<text text-anchor="middle" x="397" y="-164.8" font-family="Times,serif" font-size="14.00">TabsModule</text>
</g>
<!-- SplitPanelComponent&#45;&gt;TabsModule -->
<g id="edge1" class="edge">
<title>SplitPanelComponent&#45;&gt;TabsModule</title>
<path fill="none" stroke="black" d="M573.88,-122.03C573.88,-138.4 573.88,-160 573.88,-160 573.88,-160 450.27,-160 450.27,-160"/>
<polygon fill="black" stroke="black" points="450.27,-156.5 440.27,-160 450.27,-163.5 450.27,-156.5"/>
</g>
<!-- TabsComponent -->
<g id="node2" class="node">
<title>TabsComponent</title>
<polygon fill="#ffffb3" stroke="black" points="516.05,-122 407.95,-122 407.95,-86 516.05,-86 516.05,-122"/>
<text text-anchor="middle" x="462" y="-99.8" font-family="Times,serif" font-size="14.00">TabsComponent</text>
</g>
<!-- TabsComponent&#45;&gt;TabsModule -->
<g id="edge2" class="edge">
<title>TabsComponent&#45;&gt;TabsModule</title>
<path fill="none" stroke="black" d="M424.05,-122.11C424.05,-122.11 424.05,-140.99 424.05,-140.99"/>
<polygon fill="black" stroke="black" points="420.55,-140.99 424.05,-150.99 427.55,-140.99 420.55,-140.99"/>
</g>
<!-- SplitPanelComponent  -->
<g id="node7" class="node">
<title>SplitPanelComponent </title>
<polygon fill="#fb8072" stroke="black" points="613.39,-252 470.61,-252 470.61,-216 613.39,-216 613.39,-252"/>
<text text-anchor="middle" x="542" y="-229.8" font-family="Times,serif" font-size="14.00">SplitPanelComponent </text>
</g>
<!-- TabsModule&#45;&gt;SplitPanelComponent  -->
<g id="edge6" class="edge">
<title>TabsModule&#45;&gt;SplitPanelComponent </title>
<path fill="none" stroke="black" stroke-dasharray="5,2" d="M440.47,-178C466.09,-178 493.54,-178 493.54,-178 493.54,-178 493.54,-205.97 493.54,-205.97"/>
<polygon fill="black" stroke="black" points="490.04,-205.97 493.54,-215.97 497.04,-205.97 490.04,-205.97"/>
</g>
<!-- TabsComponent  -->
<g id="node8" class="node">
<title>TabsComponent </title>
<polygon fill="#fb8072" stroke="black" points="453.04,-252 340.96,-252 340.96,-216 453.04,-216 453.04,-252"/>
<text text-anchor="middle" x="397" y="-229.8" font-family="Times,serif" font-size="14.00">TabsComponent </text>
</g>
<!-- TabsModule&#45;&gt;TabsComponent  -->
<g id="edge7" class="edge">
<title>TabsModule&#45;&gt;TabsComponent </title>
<path fill="none" stroke="black" stroke-dasharray="5,2" d="M411.46,-187.11C411.46,-187.11 411.46,-205.99 411.46,-205.99"/>
<polygon fill="black" stroke="black" points="407.96,-205.99 411.46,-215.99 414.96,-205.99 407.96,-205.99"/>
</g>
<!-- TabsModule&#45;&gt;TabsComponent  -->
<g id="edge8" class="edge">
<title>TabsModule&#45;&gt;TabsComponent </title>
<path fill="none" stroke="black" stroke-dasharray="1,5" d="M382.54,-187.11C382.54,-187.11 382.54,-205.99 382.54,-205.99"/>
<polygon fill="black" stroke="black" points="379.04,-205.99 382.54,-215.99 386.04,-205.99 379.04,-205.99"/>
</g>
<!-- SettingsModule -->
<g id="node4" class="node">
<title>SettingsModule</title>
<polygon fill="#8dd3c7" stroke="black" points="384.16,-122 381.16,-126 360.16,-126 357.16,-122 279.84,-122 279.84,-86 384.16,-86 384.16,-122"/>
<text text-anchor="middle" x="332" y="-99.8" font-family="Times,serif" font-size="14.00">SettingsModule</text>
</g>
<!-- SettingsModule&#45;&gt;TabsModule -->
<g id="edge3" class="edge">
<title>SettingsModule&#45;&gt;TabsModule</title>
<path fill="none" stroke="black" d="M368.98,-122.11C368.98,-122.11 368.98,-140.99 368.98,-140.99"/>
<polygon fill="black" stroke="black" points="365.48,-140.99 368.98,-150.99 372.48,-140.99 365.48,-140.99"/>
</g>
<!-- TaskListModule -->
<g id="node5" class="node">
<title>TaskListModule</title>
<polygon fill="#8dd3c7" stroke="black" points="261.04,-122 258.04,-126 237.04,-126 234.04,-122 152.96,-122 152.96,-86 261.04,-86 261.04,-122"/>
<text text-anchor="middle" x="207" y="-99.8" font-family="Times,serif" font-size="14.00">TaskListModule</text>
</g>
<!-- TaskListModule&#45;&gt;TabsModule -->
<g id="edge4" class="edge">
<title>TaskListModule&#45;&gt;TabsModule</title>
<path fill="none" stroke="black" d="M207,-122.02C207,-139.37 207,-163 207,-163 207,-163 343.41,-163 343.41,-163"/>
<polygon fill="black" stroke="black" points="343.41,-166.5 353.41,-163 343.41,-159.5 343.41,-166.5"/>
</g>
<!-- TerminalModule -->
<g id="node6" class="node">
<title>TerminalModule</title>
<polygon fill="#8dd3c7" stroke="black" points="134.36,-122 131.36,-126 110.36,-126 107.36,-122 23.64,-122 23.64,-86 134.36,-86 134.36,-122"/>
<text text-anchor="middle" x="79" y="-99.8" font-family="Times,serif" font-size="14.00">TerminalModule</text>
</g>
<!-- TerminalModule&#45;&gt;TabsModule -->
<g id="edge5" class="edge">
<title>TerminalModule&#45;&gt;TabsModule</title>
<path fill="none" stroke="black" d="M79,-122.28C79,-143.32 79,-175 79,-175 79,-175 343.45,-175 343.45,-175"/>
<polygon fill="black" stroke="black" points="343.45,-178.5 353.45,-175 343.45,-171.5 343.45,-178.5"/>
</g>
<!-- TabService -->
<g id="node9" class="node">
<title>TabService</title>
<ellipse fill="#fdb462" stroke="black" cx="752" cy="-104" rx="55.01" ry="18"/>
<text text-anchor="middle" x="752" y="-99.8" font-family="Times,serif" font-size="14.00">TabService</text>
</g>
<!-- TabService&#45;&gt;TabsModule -->
<g id="edge9" class="edge">
<title>TabService&#45;&gt;TabsModule</title>
<path fill="none" stroke="black" d="M752,-122.11C752,-141.34 752,-169 752,-169 752,-169 450.53,-169 450.53,-169"/>
<polygon fill="black" stroke="black" points="450.53,-165.5 440.53,-169 450.53,-172.5 450.53,-165.5"/>
</g>
</g>
</svg>
