<?xml version="1.0" encoding="UTF-8" standalone="no"?>
<!DOCTYPE svg PUBLIC "-//W3C//DTD SVG 1.1//EN"
 "http://www.w3.org/Graphics/SVG/1.1/DTD/svg11.dtd">
<!-- Generated by graphviz version 2.47.0 (20210316.0004)
 -->
<!-- Title: dependencies Pages: 1 -->
<svg width="3470pt" height="504pt"
 viewBox="0.00 0.00 3470.00 504.00" xmlns="http://www.w3.org/2000/svg" xmlns:xlink="http://www.w3.org/1999/xlink">
<g id="graph0" class="graph" transform="scale(1 1) rotate(0) translate(4 500)">
<title>dependencies</title>
<polygon fill="white" stroke="transparent" points="-4,4 -4,-500 3466,-500 3466,4 -4,4"/>
<text text-anchor="start" x="1710.01" y="-42.4" font-family="sans-serif" font-weight="bold" font-size="14.00">Legend</text>
<polygon fill="#ffffb3" stroke="transparent" points="1497,-10 1497,-30 1517,-30 1517,-10 1497,-10"/>
<text text-anchor="start" x="1520.63" y="-15.4" font-family="sans-serif" font-size="14.00"> &#160;Declarations</text>
<polygon fill="#8dd3c7" stroke="transparent" points="1610,-10 1610,-30 1630,-30 1630,-10 1610,-10"/>
<text text-anchor="start" x="1633.73" y="-15.4" font-family="sans-serif" font-size="14.00"> &#160;Module</text>
<polygon fill="#80b1d3" stroke="transparent" points="1696,-10 1696,-30 1716,-30 1716,-10 1696,-10"/>
<text text-anchor="start" x="1719.78" y="-15.4" font-family="sans-serif" font-size="14.00"> &#160;Bootstrap</text>
<polygon fill="#fdb462" stroke="transparent" points="1793,-10 1793,-30 1813,-30 1813,-10 1793,-10"/>
<text text-anchor="start" x="1816.67" y="-15.4" font-family="sans-serif" font-size="14.00"> &#160;Providers</text>
<polygon fill="#fb8072" stroke="transparent" points="1889,-10 1889,-30 1909,-30 1909,-10 1889,-10"/>
<text text-anchor="start" x="1912.73" y="-15.4" font-family="sans-serif" font-size="14.00"> &#160;Exports</text>
<g id="clust1" class="cluster">
<title>cluster_AppModule</title>
<polygon fill="none" stroke="black" stroke-dasharray="1,5" points="1351,-290 1351,-488 1880,-488 1880,-290 1351,-290"/>
</g>
<g id="clust2" class="cluster">
<title>cluster_AppModule_declarations</title>
<polygon fill="none" stroke="black" points="1586,-298 1586,-350 1872,-350 1872,-298 1586,-298"/>
</g>
<g id="clust5" class="cluster">
<title>cluster_AppModule_imports</title>
<polygon fill="none" stroke="black" points="1359,-298 1359,-350 1578,-350 1578,-298 1359,-298"/>
</g>
<g id="clust6" class="cluster">
<title>cluster_AppModule_exports</title>
<polygon fill="none" stroke="black" points="1433,-428 1433,-480 1599,-480 1599,-428 1433,-428"/>
</g>
<g id="clust7" class="cluster">
<title>cluster_AppModule_bootstrap</title>
<polygon fill="none" stroke="black" points="1607,-428 1607,-480 1731,-480 1731,-428 1607,-428"/>
</g>
<g id="clust9" class="cluster">
<title>cluster_SettingsModule</title>
<polygon fill="none" stroke="black" stroke-dasharray="1,5" points="1888,-138 1888,-358 3454,-358 3454,-138 1888,-138"/>
</g>
<g id="clust10" class="cluster">
<title>cluster_SettingsModule_declarations</title>
<polygon fill="none" stroke="black" points="2062,-146 2062,-198 3446,-198 3446,-146 2062,-146"/>
</g>
<g id="clust21" class="cluster">
<title>cluster_SettingsModule_exports</title>
<polygon fill="none" stroke="black" points="2248,-298 2248,-350 3027,-350 3027,-298 2248,-298"/>
</g>
<g id="clust23" class="cluster">
<title>cluster_SettingsModule_providers</title>
<polygon fill="none" stroke="black" points="1896,-146 1896,-198 2054,-198 2054,-146 1896,-146"/>
</g>
<g id="clust30" class="cluster">
<title>cluster_TabsModule</title>
<polygon fill="none" stroke="black" stroke-dasharray="1,5" points="482,-214 482,-358 1343,-358 1343,-214 482,-214"/>
</g>
<g id="clust31" class="cluster">
<title>cluster_TabsModule_declarations</title>
<polygon fill="none" stroke="black" points="1054,-222 1054,-274 1335,-274 1335,-222 1054,-222"/>
</g>
<g id="clust34" class="cluster">
<title>cluster_TabsModule_imports</title>
<polygon fill="none" stroke="black" points="490,-222 490,-350 616,-350 616,-222 490,-222"/>
</g>
<g id="clust35" class="cluster">
<title>cluster_TabsModule_exports</title>
<polygon fill="none" stroke="black" points="758,-222 758,-274 1046,-274 1046,-222 758,-222"/>
</g>
<g id="clust37" class="cluster">
<title>cluster_TabsModule_providers</title>
<polygon fill="none" stroke="black" points="624,-222 624,-274 750,-274 750,-222 624,-222"/>
</g>
<g id="clust38" class="cluster">
<title>cluster_TaskListModule</title>
<polygon fill="none" stroke="black" stroke-dasharray="1,5" points="380,-70 380,-206 718,-206 718,-70 380,-70"/>
</g>
<g id="clust39" class="cluster">
<title>cluster_TaskListModule_declarations</title>
<polygon fill="none" stroke="black" points="415,-146 415,-198 561,-198 561,-146 415,-146"/>
</g>
<g id="clust40" class="cluster">
<title>cluster_TaskListModule_TaskListComponent_providers</title>
<polygon fill="none" stroke="black" points="388,-78 388,-130 552,-130 552,-78 388,-78"/>
</g>
<g id="clust42" class="cluster">
<title>cluster_TaskListModule_exports</title>
<polygon fill="none" stroke="black" points="560,-78 560,-130 710,-130 710,-78 560,-78"/>
</g>
<g id="clust45" class="cluster">
<title>cluster_TerminalModule</title>
<polygon fill="none" stroke="black" stroke-dasharray="1,5" points="8,-214 8,-282 474,-282 474,-214 8,-214"/>
</g>
<g id="clust46" class="cluster">
<title>cluster_TerminalModule_declarations</title>
<polygon fill="none" stroke="black" points="176,-222 176,-274 466,-274 466,-222 176,-222"/>
</g>
<g id="clust50" class="cluster">
<title>cluster_TerminalModule_exports</title>
<polygon fill="none" stroke="black" points="16,-222 16,-274 168,-274 168,-222 16,-222"/>
</g>
<!-- AppComponent -->
<g id="node1" class="node">
<title>AppComponent</title>
<polygon fill="#ffffb3" stroke="black" points="1863.94,-342 1758.06,-342 1758.06,-306 1863.94,-306 1863.94,-342"/>
<text text-anchor="middle" x="1811" y="-319.8" font-family="Times,serif" font-size="14.00">AppComponent</text>
</g>
<!-- AppModule -->
<g id="node3" class="node">
<title>AppModule</title>
<polygon fill="#8dd3c7" stroke="black" points="1630.66,-407 1627.66,-411 1606.66,-411 1603.66,-407 1547.34,-407 1547.34,-371 1630.66,-371 1630.66,-407"/>
<text text-anchor="middle" x="1589" y="-384.8" font-family="Times,serif" font-size="14.00">AppModule</text>
</g>
<!-- AppComponent&#45;&gt;AppModule -->
<g id="edge1" class="edge">
<title>AppComponent&#45;&gt;AppModule</title>
<path fill="none" stroke="black" d="M1811,-342.11C1811,-361.34 1811,-389 1811,-389 1811,-389 1640.76,-389 1640.76,-389"/>
<polygon fill="black" stroke="black" points="1640.76,-385.5 1630.76,-389 1640.76,-392.5 1640.76,-385.5"/>
</g>
<!-- AppTopbarComponent -->
<g id="node2" class="node">
<title>AppTopbarComponent</title>
<polygon fill="#ffffb3" stroke="black" points="1739.87,-342 1594.13,-342 1594.13,-306 1739.87,-306 1739.87,-342"/>
<text text-anchor="middle" x="1667" y="-319.8" font-family="Times,serif" font-size="14.00">AppTopbarComponent</text>
</g>
<!-- AppTopbarComponent&#45;&gt;AppModule -->
<g id="edge2" class="edge">
<title>AppTopbarComponent&#45;&gt;AppModule</title>
<path fill="none" stroke="black" d="M1612.45,-342.11C1612.45,-342.11 1612.45,-360.99 1612.45,-360.99"/>
<polygon fill="black" stroke="black" points="1608.95,-360.99 1612.45,-370.99 1615.95,-360.99 1608.95,-360.99"/>
</g>
<!-- AppTopbarComponent  -->
<g id="node6" class="node">
<title>AppTopbarComponent </title>
<polygon fill="#fb8072" stroke="black" points="1590.87,-472 1441.13,-472 1441.13,-436 1590.87,-436 1590.87,-472"/>
<text text-anchor="middle" x="1516" y="-449.8" font-family="Times,serif" font-size="14.00">AppTopbarComponent </text>
</g>
<!-- AppModule&#45;&gt;AppTopbarComponent  -->
<g id="edge5" class="edge">
<title>AppModule&#45;&gt;AppTopbarComponent </title>
<path fill="none" stroke="black" stroke-dasharray="5,2" d="M1568.93,-407.11C1568.93,-407.11 1568.93,-425.99 1568.93,-425.99"/>
<polygon fill="black" stroke="black" points="1565.43,-425.99 1568.93,-435.99 1572.43,-425.99 1565.43,-425.99"/>
</g>
<!-- AppComponent  -->
<g id="node7" class="node">
<title>AppComponent </title>
<polygon fill="#80b1d3" stroke="black" points="1723.44,-472 1614.56,-472 1614.56,-436 1723.44,-436 1723.44,-472"/>
<text text-anchor="middle" x="1669" y="-449.8" font-family="Times,serif" font-size="14.00">AppComponent </text>
</g>
<!-- AppModule&#45;&gt;AppComponent  -->
<g id="edge6" class="edge">
<title>AppModule&#45;&gt;AppComponent </title>
<path fill="none" stroke="black" stroke-dasharray="1,5" d="M1622.68,-407.11C1622.68,-407.11 1622.68,-425.99 1622.68,-425.99"/>
<polygon fill="black" stroke="black" points="1619.18,-425.99 1622.68,-435.99 1626.18,-425.99 1619.18,-425.99"/>
</g>
<!-- SharedModule -->
<g id="node4" class="node">
<title>SharedModule</title>
<polygon fill="#8dd3c7" stroke="black" points="1570.42,-342 1567.42,-346 1546.42,-346 1543.42,-342 1471.58,-342 1471.58,-306 1570.42,-306 1570.42,-342"/>
<text text-anchor="middle" x="1521" y="-319.8" font-family="Times,serif" font-size="14.00">SharedModule</text>
</g>
<!-- SharedModule&#45;&gt;AppModule -->
<g id="edge3" class="edge">
<title>SharedModule&#45;&gt;AppModule</title>
<path fill="none" stroke="black" d="M1558.69,-342.11C1558.69,-342.11 1558.69,-360.99 1558.69,-360.99"/>
<polygon fill="black" stroke="black" points="1555.19,-360.99 1558.69,-370.99 1562.19,-360.99 1555.19,-360.99"/>
</g>
<!-- TerminalModule -->
<g id="node27" class="node">
<title>TerminalModule</title>
<polygon fill="#8dd3c7" stroke="black" points="608.36,-342 605.36,-346 584.36,-346 581.36,-342 497.64,-342 497.64,-306 608.36,-306 608.36,-342"/>
<text text-anchor="middle" x="553" y="-319.8" font-family="Times,serif" font-size="14.00">TerminalModule</text>
</g>
<!-- SharedModule&#45;&gt;TerminalModule -->
<g id="edge36" class="edge">
<title>SharedModule&#45;&gt;TerminalModule</title>
<path fill="none" stroke="black" d="M1509.48,-342.04C1509.48,-349.75 1509.48,-357 1509.48,-357 1509.48,-357 553,-357 553,-357 553,-357 553,-352.04 553,-352.04"/>
<polygon fill="black" stroke="black" points="556.5,-352.04 553,-342.04 549.5,-352.04 556.5,-352.04"/>
</g>
<!-- TabsModule -->
<g id="node5" class="node">
<title>TabsModule</title>
<polygon fill="#8dd3c7" stroke="black" points="1453.26,-342 1450.26,-346 1429.26,-346 1426.26,-342 1366.74,-342 1366.74,-306 1453.26,-306 1453.26,-342"/>
<text text-anchor="middle" x="1410" y="-319.8" font-family="Times,serif" font-size="14.00">TabsModule</text>
</g>
<!-- TabsModule&#45;&gt;AppModule -->
<g id="edge4" class="edge">
<title>TabsModule&#45;&gt;AppModule</title>
<path fill="none" stroke="black" d="M1447.35,-342.11C1447.35,-361.34 1447.35,-389 1447.35,-389 1447.35,-389 1537.27,-389 1537.27,-389"/>
<polygon fill="black" stroke="black" points="1537.27,-392.5 1547.27,-389 1537.27,-385.5 1537.27,-392.5"/>
</g>
<!-- SplitPanelComponent  -->
<g id="node28" class="node">
<title>SplitPanelComponent </title>
<polygon fill="#fb8072" stroke="black" points="1038.39,-266 895.61,-266 895.61,-230 1038.39,-230 1038.39,-266"/>
<text text-anchor="middle" x="967" y="-243.8" font-family="Times,serif" font-size="14.00">SplitPanelComponent </text>
</g>
<!-- TabsModule&#45;&gt;SplitPanelComponent  -->
<g id="edge27" class="edge">
<title>TabsModule&#45;&gt;SplitPanelComponent </title>
<path fill="none" stroke="black" stroke-dasharray="5,2" d="M1366.72,-315C1255.25,-315 967,-315 967,-315 967,-315 967,-276.31 967,-276.31"/>
<polygon fill="black" stroke="black" points="970.5,-276.31 967,-266.31 963.5,-276.31 970.5,-276.31"/>
</g>
<!-- TabsComponent  -->
<g id="node29" class="node">
<title>TabsComponent </title>
<polygon fill="#fb8072" stroke="black" points="878.04,-266 765.96,-266 765.96,-230 878.04,-230 878.04,-266"/>
<text text-anchor="middle" x="822" y="-243.8" font-family="Times,serif" font-size="14.00">TabsComponent </text>
</g>
<!-- TabsModule&#45;&gt;TabsComponent  -->
<g id="edge28" class="edge">
<title>TabsModule&#45;&gt;TabsComponent </title>
<path fill="none" stroke="black" stroke-dasharray="5,2" d="M1366.37,-324C1227.26,-324 803.33,-324 803.33,-324 803.33,-324 803.33,-276.01 803.33,-276.01"/>
<polygon fill="black" stroke="black" points="806.83,-276.01 803.33,-266.01 799.83,-276.01 806.83,-276.01"/>
</g>
<!-- TabsModule&#45;&gt;TabsComponent  -->
<g id="edge29" class="edge">
<title>TabsModule&#45;&gt;TabsComponent </title>
<path fill="none" stroke="black" stroke-dasharray="1,5" d="M1366.27,-320C1232.96,-320 840.67,-320 840.67,-320 840.67,-320 840.67,-276.17 840.67,-276.17"/>
<polygon fill="black" stroke="black" points="844.17,-276.17 840.67,-266.17 837.17,-276.17 844.17,-276.17"/>
</g>
<!-- AdvancedComponent -->
<g id="node8" class="node">
<title>AdvancedComponent</title>
<polygon fill="#ffffb3" stroke="black" points="3438.08,-190 3299.92,-190 3299.92,-154 3438.08,-154 3438.08,-190"/>
<text text-anchor="middle" x="3369" y="-167.8" font-family="Times,serif" font-size="14.00">AdvancedComponent</text>
</g>
<!-- SettingsModule -->
<g id="node17" class="node">
<title>SettingsModule</title>
<polygon fill="#8dd3c7" stroke="black" points="2675.16,-266 2672.16,-270 2651.16,-270 2648.16,-266 2570.84,-266 2570.84,-230 2675.16,-230 2675.16,-266"/>
<text text-anchor="middle" x="2623" y="-243.8" font-family="Times,serif" font-size="14.00">SettingsModule</text>
</g>
<!-- AdvancedComponent&#45;&gt;SettingsModule -->
<g id="edge7" class="edge">
<title>AdvancedComponent&#45;&gt;SettingsModule</title>
<path fill="none" stroke="black" d="M3369,-190.38C3369,-214.28 3369,-253 3369,-253 3369,-253 2685.46,-253 2685.46,-253"/>
<polygon fill="black" stroke="black" points="2685.46,-249.5 2675.46,-253 2685.46,-256.5 2685.46,-249.5"/>
</g>
<!-- BackgroundComponent -->
<g id="node9" class="node">
<title>BackgroundComponent</title>
<polygon fill="#ffffb3" stroke="black" points="3281.76,-190 3132.24,-190 3132.24,-154 3281.76,-154 3281.76,-190"/>
<text text-anchor="middle" x="3207" y="-167.8" font-family="Times,serif" font-size="14.00">BackgroundComponent</text>
</g>
<!-- BackgroundComponent&#45;&gt;SettingsModule -->
<g id="edge8" class="edge">
<title>BackgroundComponent&#45;&gt;SettingsModule</title>
<path fill="none" stroke="black" d="M3207,-190.01C3207,-212.49 3207,-248 3207,-248 3207,-248 2685.34,-248 2685.34,-248"/>
<polygon fill="black" stroke="black" points="2685.34,-244.5 2675.34,-248 2685.34,-251.5 2685.34,-244.5"/>
</g>
<!-- CursorComponent -->
<g id="node10" class="node">
<title>CursorComponent</title>
<polygon fill="#ffffb3" stroke="black" points="3113.94,-190 2994.06,-190 2994.06,-154 3113.94,-154 3113.94,-190"/>
<text text-anchor="middle" x="3054" y="-167.8" font-family="Times,serif" font-size="14.00">CursorComponent</text>
</g>
<!-- CursorComponent&#45;&gt;SettingsModule -->
<g id="edge9" class="edge">
<title>CursorComponent&#45;&gt;SettingsModule</title>
<path fill="none" stroke="black" d="M3006.54,-190.17C3006.54,-211.5 3006.54,-244 3006.54,-244 3006.54,-244 2685.52,-244 2685.52,-244"/>
<polygon fill="black" stroke="black" points="2685.53,-240.5 2675.52,-244 2685.52,-247.5 2685.53,-240.5"/>
</g>
<!-- FontComponent -->
<g id="node11" class="node">
<title>FontComponent</title>
<polygon fill="#ffffb3" stroke="black" points="2976.51,-190 2869.49,-190 2869.49,-154 2976.51,-154 2976.51,-190"/>
<text text-anchor="middle" x="2923" y="-167.8" font-family="Times,serif" font-size="14.00">FontComponent</text>
</g>
<!-- FontComponent&#45;&gt;SettingsModule -->
<g id="edge10" class="edge">
<title>FontComponent&#45;&gt;SettingsModule</title>
<path fill="none" stroke="black" d="M2873.35,-190.31C2873.35,-210.15 2873.35,-239 2873.35,-239 2873.35,-239 2685.18,-239 2685.18,-239"/>
<polygon fill="black" stroke="black" points="2685.18,-235.5 2675.18,-239 2685.18,-242.5 2685.18,-235.5"/>
</g>
<!-- ForegroundComponent -->
<g id="node12" class="node">
<title>ForegroundComponent</title>
<polygon fill="#ffffb3" stroke="black" points="2851.15,-190 2704.85,-190 2704.85,-154 2851.15,-154 2851.15,-190"/>
<text text-anchor="middle" x="2778" y="-167.8" font-family="Times,serif" font-size="14.00">ForegroundComponent</text>
</g>
<!-- ForegroundComponent&#45;&gt;SettingsModule -->
<g id="edge11" class="edge">
<title>ForegroundComponent&#45;&gt;SettingsModule</title>
<path fill="none" stroke="black" d="M2803.01,-190.22C2803.01,-208.83 2803.01,-235 2803.01,-235 2803.01,-235 2685.55,-235 2685.55,-235"/>
<polygon fill="black" stroke="black" points="2685.55,-231.5 2675.55,-235 2685.55,-238.5 2685.55,-231.5"/>
</g>
<!-- SettingsComponent -->
<g id="node13" class="node">
<title>SettingsComponent</title>
<polygon fill="#ffffb3" stroke="black" points="2686.45,-190 2559.55,-190 2559.55,-154 2686.45,-154 2686.45,-190"/>
<text text-anchor="middle" x="2623" y="-167.8" font-family="Times,serif" font-size="14.00">SettingsComponent</text>
</g>
<!-- SettingsComponent&#45;&gt;SettingsModule -->
<g id="edge12" class="edge">
<title>SettingsComponent&#45;&gt;SettingsModule</title>
<path fill="none" stroke="black" d="M2623,-190.01C2623,-190.01 2623,-219.85 2623,-219.85"/>
<polygon fill="black" stroke="black" points="2619.5,-219.85 2623,-229.85 2626.5,-219.85 2619.5,-219.85"/>
</g>
<!-- ShellComponent -->
<g id="node14" class="node">
<title>ShellComponent</title>
<polygon fill="#ffffb3" stroke="black" points="2542.11,-190 2431.89,-190 2431.89,-154 2542.11,-154 2542.11,-190"/>
<text text-anchor="middle" x="2487" y="-167.8" font-family="Times,serif" font-size="14.00">ShellComponent</text>
</g>
<!-- ShellComponent&#45;&gt;SettingsModule -->
<g id="edge13" class="edge">
<title>ShellComponent&#45;&gt;SettingsModule</title>
<path fill="none" stroke="black" d="M2503.85,-190.03C2503.85,-209.58 2503.85,-238 2503.85,-238 2503.85,-238 2560.74,-238 2560.74,-238"/>
<polygon fill="black" stroke="black" points="2560.74,-241.5 2570.74,-238 2560.74,-234.5 2560.74,-241.5"/>
</g>
<!-- TabSettingsComponent -->
<g id="node15" class="node">
<title>TabSettingsComponent</title>
<polygon fill="#ffffb3" stroke="black" points="2414.21,-190 2265.79,-190 2265.79,-154 2414.21,-154 2414.21,-190"/>
<text text-anchor="middle" x="2340" y="-167.8" font-family="Times,serif" font-size="14.00">TabSettingsComponent</text>
</g>
<!-- TabSettingsComponent&#45;&gt;SettingsModule -->
<g id="edge14" class="edge">
<title>TabSettingsComponent&#45;&gt;SettingsModule</title>
<path fill="none" stroke="black" d="M2360.54,-190.03C2360.54,-210.77 2360.54,-242 2360.54,-242 2360.54,-242 2560.83,-242 2560.83,-242"/>
<polygon fill="black" stroke="black" points="2560.83,-245.5 2570.83,-242 2560.83,-238.5 2560.83,-245.5"/>
</g>
<!-- WindowControlsComponent -->
<g id="node16" class="node">
<title>WindowControlsComponent</title>
<polygon fill="#ffffb3" stroke="black" points="2247.77,-190 2070.23,-190 2070.23,-154 2247.77,-154 2247.77,-190"/>
<text text-anchor="middle" x="2159" y="-167.8" font-family="Times,serif" font-size="14.00">WindowControlsComponent</text>
</g>
<!-- WindowControlsComponent&#45;&gt;SettingsModule -->
<g id="edge15" class="edge">
<title>WindowControlsComponent&#45;&gt;SettingsModule</title>
<path fill="none" stroke="black" d="M2159,-190.29C2159,-212.21 2159,-246 2159,-246 2159,-246 2560.68,-246 2560.68,-246"/>
<polygon fill="black" stroke="black" points="2560.68,-249.5 2570.68,-246 2560.68,-242.5 2560.68,-249.5"/>
</g>
<!-- SettingsModule&#45;&gt;TabsModule -->
<g id="edge24" class="edge">
<title>SettingsModule&#45;&gt;TabsModule</title>
<path fill="none" stroke="black" d="M2570.73,-254C2340.05,-254 1424.46,-254 1424.46,-254 1424.46,-254 1424.46,-295.97 1424.46,-295.97"/>
<polygon fill="black" stroke="black" points="1420.96,-295.97 1424.46,-305.97 1427.96,-295.97 1420.96,-295.97"/>
</g>
<!-- AdvancedComponent  -->
<g id="node18" class="node">
<title>AdvancedComponent </title>
<polygon fill="#fb8072" stroke="black" points="3018.58,-342 2877.42,-342 2877.42,-306 3018.58,-306 3018.58,-342"/>
<text text-anchor="middle" x="2948" y="-319.8" font-family="Times,serif" font-size="14.00">AdvancedComponent </text>
</g>
<!-- SettingsModule&#45;&gt;AdvancedComponent  -->
<g id="edge16" class="edge">
<title>SettingsModule&#45;&gt;AdvancedComponent </title>
<path fill="none" stroke="black" stroke-dasharray="5,2" d="M2675.23,-257C2762.11,-257 2926.86,-257 2926.86,-257 2926.86,-257 2926.86,-295.69 2926.86,-295.69"/>
<polygon fill="black" stroke="black" points="2923.36,-295.69 2926.86,-305.69 2930.36,-295.69 2923.36,-295.69"/>
</g>
<!-- BackgroundComponent  -->
<g id="node19" class="node">
<title>BackgroundComponent </title>
<polygon fill="#fb8072" stroke="black" points="2859.76,-342 2706.24,-342 2706.24,-306 2859.76,-306 2859.76,-342"/>
<text text-anchor="middle" x="2783" y="-319.8" font-family="Times,serif" font-size="14.00">BackgroundComponent </text>
</g>
<!-- SettingsModule&#45;&gt;BackgroundComponent  -->
<g id="edge17" class="edge">
<title>SettingsModule&#45;&gt;BackgroundComponent </title>
<path fill="none" stroke="black" stroke-dasharray="5,2" d="M2675.43,-262C2712.15,-262 2754.69,-262 2754.69,-262 2754.69,-262 2754.69,-295.73 2754.69,-295.73"/>
<polygon fill="black" stroke="black" points="2751.19,-295.73 2754.69,-305.73 2758.19,-295.73 2751.19,-295.73"/>
</g>
<!-- SettingsComponent  -->
<g id="node20" class="node">
<title>SettingsComponent </title>
<polygon fill="#fb8072" stroke="black" points="2687.95,-342 2558.05,-342 2558.05,-306 2687.95,-306 2687.95,-342"/>
<text text-anchor="middle" x="2623" y="-319.8" font-family="Times,serif" font-size="14.00">SettingsComponent </text>
</g>
<!-- SettingsModule&#45;&gt;SettingsComponent  -->
<g id="edge18" class="edge">
<title>SettingsModule&#45;&gt;SettingsComponent </title>
<path fill="none" stroke="black" stroke-dasharray="5,2" d="M2623,-266.01C2623,-266.01 2623,-295.85 2623,-295.85"/>
<polygon fill="black" stroke="black" points="2619.5,-295.85 2623,-305.85 2626.5,-295.85 2619.5,-295.85"/>
</g>
<!-- ShellComponent  -->
<g id="node21" class="node">
<title>ShellComponent </title>
<polygon fill="#fb8072" stroke="black" points="2539.61,-342 2426.39,-342 2426.39,-306 2539.61,-306 2539.61,-342"/>
<text text-anchor="middle" x="2483" y="-319.8" font-family="Times,serif" font-size="14.00">ShellComponent </text>
</g>
<!-- SettingsModule&#45;&gt;ShellComponent  -->
<g id="edge19" class="edge">
<title>SettingsModule&#45;&gt;ShellComponent </title>
<path fill="none" stroke="black" stroke-dasharray="5,2" d="M2570.49,-262C2525.49,-262 2467.9,-262 2467.9,-262 2467.9,-262 2467.9,-295.73 2467.9,-295.73"/>
<polygon fill="black" stroke="black" points="2464.4,-295.73 2467.9,-305.73 2471.4,-295.73 2464.4,-295.73"/>
</g>
<!-- TabSettingsComponent  -->
<g id="node22" class="node">
<title>TabSettingsComponent </title>
<polygon fill="#fb8072" stroke="black" points="2407.71,-342 2256.29,-342 2256.29,-306 2407.71,-306 2407.71,-342"/>
<text text-anchor="middle" x="2332" y="-319.8" font-family="Times,serif" font-size="14.00">TabSettingsComponent </text>
</g>
<!-- SettingsModule&#45;&gt;TabSettingsComponent  -->
<g id="edge20" class="edge">
<title>SettingsModule&#45;&gt;TabSettingsComponent </title>
<path fill="none" stroke="black" stroke-dasharray="5,2" d="M2570.8,-258C2482.51,-258 2313.21,-258 2313.21,-258 2313.21,-258 2313.21,-295.97 2313.21,-295.97"/>
<polygon fill="black" stroke="black" points="2309.71,-295.97 2313.21,-305.97 2316.71,-295.97 2309.71,-295.97"/>
</g>
<!-- SettingsService -->
<g id="node23" class="node">
<title>SettingsService</title>
<ellipse fill="#fdb462" stroke="black" cx="1975" cy="-172" rx="71.22" ry="18"/>
<text text-anchor="middle" x="1975" y="-167.8" font-family="Times,serif" font-size="14.00">SettingsService</text>
</g>
<!-- SettingsService&#45;&gt;SettingsModule -->
<g id="edge21" class="edge">
<title>SettingsService&#45;&gt;SettingsModule</title>
<path fill="none" stroke="black" d="M1975,-190.09C1975,-213.13 1975,-250 1975,-250 1975,-250 2560.79,-250 2560.79,-250"/>
<polygon fill="black" stroke="black" points="2560.79,-253.5 2570.79,-250 2560.79,-246.5 2560.79,-253.5"/>
</g>
<!-- SplitPanelComponent -->
<g id="node24" class="node">
<title>SplitPanelComponent</title>
<polygon fill="#ffffb3" stroke="black" points="1327.39,-266 1188.61,-266 1188.61,-230 1327.39,-230 1327.39,-266"/>
<text text-anchor="middle" x="1258" y="-243.8" font-family="Times,serif" font-size="14.00">SplitPanelComponent</text>
</g>
<!-- SplitPanelComponent&#45;&gt;TabsModule -->
<g id="edge22" class="edge">
<title>SplitPanelComponent&#45;&gt;TabsModule</title>
<path fill="none" stroke="black" d="M1327.58,-234C1361.69,-234 1395.54,-234 1395.54,-234 1395.54,-234 1395.54,-295.79 1395.54,-295.79"/>
<polygon fill="black" stroke="black" points="1392.04,-295.79 1395.54,-305.79 1399.04,-295.79 1392.04,-295.79"/>
</g>
<!-- TabsComponent -->
<g id="node25" class="node">
<title>TabsComponent</title>
<polygon fill="#ffffb3" stroke="black" points="1170.05,-266 1061.95,-266 1061.95,-230 1170.05,-230 1170.05,-266"/>
<text text-anchor="middle" x="1116" y="-243.8" font-family="Times,serif" font-size="14.00">TabsComponent</text>
</g>
<!-- TabsComponent&#45;&gt;TabsModule -->
<g id="edge23" class="edge">
<title>TabsComponent&#45;&gt;TabsModule</title>
<path fill="none" stroke="black" d="M1116,-266.22C1116,-284.83 1116,-311 1116,-311 1116,-311 1356.62,-311 1356.62,-311"/>
<polygon fill="black" stroke="black" points="1356.62,-314.5 1366.62,-311 1356.62,-307.5 1356.62,-314.5"/>
</g>
<!-- TaskListModule -->
<g id="node26" class="node">
<title>TaskListModule</title>
<polygon fill="#8dd3c7" stroke="black" points="607.04,-266 604.04,-270 583.04,-270 580.04,-266 498.96,-266 498.96,-230 607.04,-230 607.04,-266"/>
<text text-anchor="middle" x="553" y="-243.8" font-family="Times,serif" font-size="14.00">TaskListModule</text>
</g>
<!-- TaskListModule&#45;&gt;TabsModule -->
<g id="edge25" class="edge">
<title>TaskListModule&#45;&gt;TabsModule</title>
<path fill="none" stroke="black" d="M607.25,-248C614.9,-248 620.21,-248 620.21,-248 620.21,-248 620.21,-333 620.21,-333 620.21,-333 1356.7,-333 1356.7,-333"/>
<polygon fill="black" stroke="black" points="1356.7,-336.5 1366.7,-333 1356.7,-329.5 1356.7,-336.5"/>
</g>
<!-- TaskListModule&#45;&gt;TerminalModule -->
<g id="edge37" class="edge">
<title>TaskListModule&#45;&gt;TerminalModule</title>
<path fill="none" stroke="black" d="M553,-266.01C553,-266.01 553,-295.85 553,-295.85"/>
<polygon fill="black" stroke="black" points="549.5,-295.85 553,-305.85 556.5,-295.85 549.5,-295.85"/>
</g>
<!-- TaskListComponent  -->
<g id="node33" class="node">
<title>TaskListComponent </title>
<polygon fill="#fb8072" stroke="black" points="701.82,-122 568.18,-122 568.18,-86 701.82,-86 701.82,-122"/>
<text text-anchor="middle" x="635" y="-99.8" font-family="Times,serif" font-size="14.00">TaskListComponent </text>
</g>
<!-- TaskListModule&#45;&gt;TaskListComponent  -->
<g id="edge33" class="edge">
<title>TaskListModule&#45;&gt;TaskListComponent </title>
<path fill="none" stroke="black" stroke-dasharray="5,2" d="M587.68,-229.76C587.68,-229.76 587.68,-132.09 587.68,-132.09"/>
<polygon fill="black" stroke="black" points="591.18,-132.09 587.68,-122.09 584.18,-132.09 591.18,-132.09"/>
</g>
<!-- TerminalModule&#45;&gt;TabsModule -->
<g id="edge26" class="edge">
<title>TerminalModule&#45;&gt;TabsModule</title>
<path fill="none" stroke="black" d="M608.57,-338C608.57,-338 1356.69,-338 1356.69,-338"/>
<polygon fill="black" stroke="black" points="1356.69,-341.5 1366.69,-338 1356.69,-334.5 1356.69,-341.5"/>
</g>
<!-- TerminalComponent  -->
<g id="node36" class="node">
<title>TerminalComponent </title>
<polygon fill="#fb8072" stroke="black" points="160.15,-266 23.85,-266 23.85,-230 160.15,-230 160.15,-266"/>
<text text-anchor="middle" x="92" y="-243.8" font-family="Times,serif" font-size="14.00">TerminalComponent </text>
</g>
<!-- TerminalModule&#45;&gt;TerminalComponent  -->
<g id="edge38" class="edge">
<title>TerminalModule&#45;&gt;TerminalComponent </title>
<path fill="none" stroke="black" stroke-dasharray="5,2" d="M497.39,-333C374.78,-333 92,-333 92,-333 92,-333 92,-276.03 92,-276.03"/>
<polygon fill="black" stroke="black" points="95.5,-276.03 92,-266.03 88.5,-276.03 95.5,-276.03"/>
</g>
<!-- TabService -->
<g id="node30" class="node">
<title>TabService</title>
<ellipse fill="#fdb462" stroke="black" cx="687" cy="-248" rx="55.01" ry="18"/>
<text text-anchor="middle" x="687" y="-243.8" font-family="Times,serif" font-size="14.00">TabService</text>
</g>
<!-- TabService&#45;&gt;TabsModule -->
<g id="edge30" class="edge">
<title>TabService&#45;&gt;TabsModule</title>
<path fill="none" stroke="black" d="M687,-266.38C687,-290.28 687,-329 687,-329 687,-329 1356.67,-329 1356.67,-329"/>
<polygon fill="black" stroke="black" points="1356.67,-332.5 1366.67,-329 1356.67,-325.5 1356.67,-332.5"/>
</g>
<!-- TaskListComponent -->
<g id="node31" class="node">
<title>TaskListComponent</title>
<polygon fill="#ffffb3" stroke="black" points="553.32,-190 422.68,-190 422.68,-154 553.32,-154 553.32,-190"/>
<text text-anchor="middle" x="488" y="-167.8" font-family="Times,serif" font-size="14.00">TaskListComponent</text>
</g>
<!-- TaskListComponent&#45;&gt;TaskListModule -->
<g id="edge31" class="edge">
<title>TaskListComponent&#45;&gt;TaskListModule</title>
<path fill="none" stroke="black" d="M525.95,-190.01C525.95,-190.01 525.95,-219.85 525.95,-219.85"/>
<polygon fill="black" stroke="black" points="522.45,-219.85 525.95,-229.85 529.45,-219.85 522.45,-219.85"/>
</g>
<!-- TaskListService -->
<g id="node32" class="node">
<title>TaskListService</title>
<ellipse fill="#fdb462" stroke="black" cx="470" cy="-104" rx="73.57" ry="18"/>
<text text-anchor="middle" x="470" y="-99.8" font-family="Times,serif" font-size="14.00">TaskListService</text>
</g>
<!-- TaskListService&#45;&gt;TaskListComponent -->
<g id="edge32" class="edge">
<title>TaskListService&#45;&gt;TaskListComponent</title>
<path fill="none" stroke="black" d="M483.31,-121.87C483.31,-121.87 483.31,-143.54 483.31,-143.54"/>
<polygon fill="black" stroke="black" points="479.81,-143.54 483.31,-153.54 486.81,-143.54 479.81,-143.54"/>
</g>
<!-- TerminalComponent -->
<g id="node34" class="node">
<title>TerminalComponent</title>
<polygon fill="#ffffb3" stroke="black" points="458.15,-266 325.85,-266 325.85,-230 458.15,-230 458.15,-266"/>
<text text-anchor="middle" x="392" y="-243.8" font-family="Times,serif" font-size="14.00">TerminalComponent</text>
</g>
<!-- TerminalComponent&#45;&gt;TerminalModule -->
<g id="edge34" class="edge">
<title>TerminalComponent&#45;&gt;TerminalModule</title>
<path fill="none" stroke="black" d="M392,-266.31C392,-286.15 392,-315 392,-315 392,-315 487.59,-315 487.59,-315"/>
<polygon fill="black" stroke="black" points="487.59,-318.5 497.59,-315 487.59,-311.5 487.59,-318.5"/>
</g>
<!-- TopBarComponent -->
<g id="node35" class="node">
<title>TopBarComponent</title>
<polygon fill="#ffffb3" stroke="black" points="308.1,-266 183.9,-266 183.9,-230 308.1,-230 308.1,-266"/>
<text text-anchor="middle" x="246" y="-243.8" font-family="Times,serif" font-size="14.00">TopBarComponent</text>
</g>
<!-- TopBarComponent&#45;&gt;TerminalModule -->
<g id="edge35" class="edge">
<title>TopBarComponent&#45;&gt;TerminalModule</title>
<path fill="none" stroke="black" d="M246,-266.01C246,-288.49 246,-324 246,-324 246,-324 487.4,-324 487.4,-324"/>
<polygon fill="black" stroke="black" points="487.4,-327.5 497.4,-324 487.4,-320.5 487.4,-327.5"/>
</g>
</g>
</svg>
